<?xml version="1.0" encoding="UTF-8" standalone="no"?>
<svg
   xmlns:dc="http://purl.org/dc/elements/1.1/"
   xmlns:cc="http://creativecommons.org/ns#"
   xmlns:rdf="http://www.w3.org/1999/02/22-rdf-syntax-ns#"
   xmlns:svg="http://www.w3.org/2000/svg"
   xmlns="http://www.w3.org/2000/svg"
   version="1.1"
   id="svg2"
   xml:space="preserve"
   width="104.33333"
   height="80.58667"
   viewBox="0 0 104.33333 80.58667"><metadata
     id="metadata8"><rdf:RDF><cc:Work
         rdf:about=""><dc:format>image/svg+xml</dc:format><dc:type
           rdf:resource="http://purl.org/dc/dcmitype/StillImage" /></cc:Work></rdf:RDF></metadata><defs
     id="defs6" /><g
     id="g10"
     transform="matrix(1.3333333,0,0,-1.3333333,0,80.586667)"><path
       d="M 0,0 H 78.25 V 60.44 H 0 Z"
       style="fill:none;stroke:#000000;stroke-width:0.1;stroke-linecap:butt;stroke-linejoin:miter;stroke-miterlimit:10;stroke-dasharray:none;stroke-opacity:1"
       id="path12" /><path
       d="M 6.56,8.83 H 18.07 V 9.0295 H 6.56 Z"
       style="fill:#eae9e9;fill-opacity:1;fill-rule:nonzero;stroke:none"
       id="path14" /><path
       d="M 6.56,8.83 H 18.07 V 9.0295 H 6.56 Z"
       style="fill:none;stroke:#231f20;stroke-width:0.1;stroke-linecap:butt;stroke-linejoin:miter;stroke-miterlimit:10;stroke-dasharray:none;stroke-opacity:1"
       id="path16" /><path
       d="M 17.99,4.72 H 37.04 V 4.91845 H 17.99 Z"
       style="fill:#eae9e9;fill-opacity:1;fill-rule:nonzero;stroke:none"
       id="path18" /><path
       d="M 17.99,4.72 H 37.04 V 4.91845 H 17.99 Z"
       style="fill:none;stroke:#231f20;stroke-width:0.1;stroke-linecap:butt;stroke-linejoin:miter;stroke-miterlimit:10;stroke-dasharray:none;stroke-opacity:1"
       id="path20" /><path
       d="M 60.17,8.83 H 71.69 V 9.0295 H 60.17 Z"
       style="fill:#eae9e9;fill-opacity:1;fill-rule:nonzero;stroke:none"
       id="path22" /><path
       d="M 60.17,8.83 H 71.69 V 9.0295 H 60.17 Z"
       style="fill:none;stroke:#231f20;stroke-width:0.1;stroke-linecap:butt;stroke-linejoin:miter;stroke-miterlimit:10;stroke-dasharray:none;stroke-opacity:1"
       id="path24" /><path
       d="m 70.97,9.76 h 1.24 V 11 h -1.24 z"
       style="fill:#eae9e9;fill-opacity:1;fill-rule:nonzero;stroke:none"
       id="path26" /><path
       d="m 70.97,9.76 h 1.24 V 11 h -1.24 z"
       style="fill:none;stroke:#231f20;stroke-width:0.1;stroke-linecap:butt;stroke-linejoin:miter;stroke-miterlimit:10;stroke-dasharray:none;stroke-opacity:1"
       id="path28" /><path
       d="m 39.42,9.88 h 1.98 v 1.98 h -1.98 z"
       style="fill:#eae9e9;fill-opacity:1;fill-rule:nonzero;stroke:none"
       id="path30" /><path
       d="m 39.42,9.88 h 1.98 v 1.98 h -1.98 z"
       style="fill:none;stroke:#231f20;stroke-width:0.1;stroke-linecap:butt;stroke-linejoin:miter;stroke-miterlimit:10;stroke-dasharray:none;stroke-opacity:1"
       id="path32" /><path
       d="M 39.42,4.72 H 60.25 V 4.91845 H 39.42 Z"
       style="fill:#eae9e9;fill-opacity:1;fill-rule:nonzero;stroke:none"
       id="path34" /><path
       d="M 39.42,4.72 H 60.25 V 4.91845 H 39.42 Z"
       style="fill:none;stroke:#231f20;stroke-width:0.1;stroke-linecap:butt;stroke-linejoin:miter;stroke-miterlimit:10;stroke-dasharray:none;stroke-opacity:1"
       id="path36" /><path
       d="M 8.52,9.76 H 9.76 V 11 H 8.52 Z"
       style="fill:#eae9e9;fill-opacity:1;fill-rule:nonzero;stroke:none"
       id="path38" /><path
       d="M 8.52,9.76 H 9.76 V 11 H 8.52 Z"
       style="fill:none;stroke:#231f20;stroke-width:0.1;stroke-linecap:butt;stroke-linejoin:miter;stroke-miterlimit:10;stroke-dasharray:none;stroke-opacity:1"
       id="path40" /><path
       d="m 34.26,9.88 h 1.98 v 1.98 h -1.98 z"
       style="fill:#eae9e9;fill-opacity:1;fill-rule:nonzero;stroke:none"
       id="path42" /><path
       d="m 34.26,9.88 h 1.98 v 1.98 h -1.98 z"
       style="fill:none;stroke:#231f20;stroke-width:0.1;stroke-linecap:butt;stroke-linejoin:miter;stroke-miterlimit:10;stroke-dasharray:none;stroke-opacity:1"
       id="path44" /><path
       d="m 68.49,9.76 h 1.24 V 11 h -1.24 z"
       style="fill:#eae9e9;fill-opacity:1;fill-rule:nonzero;stroke:none"
       id="path46" /><path
       d="m 68.49,9.76 h 1.24 V 11 h -1.24 z"
       style="fill:none;stroke:#231f20;stroke-width:0.1;stroke-linecap:butt;stroke-linejoin:miter;stroke-miterlimit:10;stroke-dasharray:none;stroke-opacity:1"
       id="path48" /><path
       d="m 11,9.76 h 1.24 V 11 H 11 Z"
       style="fill:#eae9e9;fill-opacity:1;fill-rule:nonzero;stroke:none"
       id="path50" /><path
       d="m 11,9.76 h 1.24 V 11 H 11 Z"
       style="fill:none;stroke:#231f20;stroke-width:0.1;stroke-linecap:butt;stroke-linejoin:miter;stroke-miterlimit:10;stroke-dasharray:none;stroke-opacity:1"
       id="path52" /><path
       d="m 44.58,9.48 h 3.97 v 2.38 h -3.97 z"
       style="fill:#eae9e9;fill-opacity:1;fill-rule:nonzero;stroke:none"
       id="path54" /><path
       d="m 44.58,9.48 h 3.97 v 2.38 h -3.97 z"
       style="fill:none;stroke:#231f20;stroke-width:0.1;stroke-linecap:butt;stroke-linejoin:miter;stroke-miterlimit:10;stroke-dasharray:none;stroke-opacity:1"
       id="path56" /><path
       d="m 66.01,9.76 h 1.24 V 11 h -1.24 z"
       style="fill:#eae9e9;fill-opacity:1;fill-rule:nonzero;stroke:none"
       id="path58" /><path
       d="m 66.01,9.76 h 1.24 V 11 h -1.24 z"
       style="fill:none;stroke:#231f20;stroke-width:0.1;stroke-linecap:butt;stroke-linejoin:miter;stroke-miterlimit:10;stroke-dasharray:none;stroke-opacity:1"
       id="path60" /><path
       d="m 66.01,12.24 h 1.24 v 1.24 h -1.24 z"
       style="fill:#eae9e9;fill-opacity:1;fill-rule:nonzero;stroke:none"
       id="path62" /><path
       d="m 66.01,12.24 h 1.24 v 1.24 h -1.24 z"
       style="fill:none;stroke:#231f20;stroke-width:0.1;stroke-linecap:butt;stroke-linejoin:miter;stroke-miterlimit:10;stroke-dasharray:none;stroke-opacity:1"
       id="path64" /><path
       d="m 22.16,7.7 h 6.95 v 6.75 h -6.95 z"
       style="fill:#eae9e9;fill-opacity:1;fill-rule:nonzero;stroke:none"
       id="path66" /><path
       d="m 22.16,7.7 h 6.95 v 6.75 h -6.95 z"
       style="fill:none;stroke:#231f20;stroke-width:0.1;stroke-linecap:butt;stroke-linejoin:miter;stroke-miterlimit:10;stroke-dasharray:none;stroke-opacity:1"
       id="path68" /><path
       d="m 36.84,12.46 h 1.98 v 1.99 h -1.98 z"
       style="fill:#eae9e9;fill-opacity:1;fill-rule:nonzero;stroke:none"
       id="path70" /><path
       d="m 36.84,12.46 h 1.98 v 1.99 h -1.98 z"
       style="fill:none;stroke:#231f20;stroke-width:0.1;stroke-linecap:butt;stroke-linejoin:miter;stroke-miterlimit:10;stroke-dasharray:none;stroke-opacity:1"
       id="path72" /><path
       d="m 9.04,14 h 7.17 v 0.19845 H 9.04 Z"
       style="fill:#eae9e9;fill-opacity:1;fill-rule:nonzero;stroke:none"
       id="path74" /><path
       d="m 9.04,14 h 7.17 v 0.19845 H 9.04 Z"
       style="fill:none;stroke:#231f20;stroke-width:0.1;stroke-linecap:butt;stroke-linejoin:miter;stroke-miterlimit:10;stroke-dasharray:none;stroke-opacity:1"
       id="path76" /><path
       d="m 68.49,12.24 h 1.24 v 1.24 h -1.24 z"
       style="fill:#eae9e9;fill-opacity:1;fill-rule:nonzero;stroke:none"
       id="path78" /><path
       d="m 68.49,12.24 h 1.24 v 1.24 h -1.24 z"
       style="fill:none;stroke:#231f20;stroke-width:0.1;stroke-linecap:butt;stroke-linejoin:miter;stroke-miterlimit:10;stroke-dasharray:none;stroke-opacity:1"
       id="path80" /><path
       d="m 45.62,15.02 h 16.62 v 0.19845 H 45.62 Z"
       style="fill:#eae9e9;fill-opacity:1;fill-rule:nonzero;stroke:none"
       id="path82" /><path
       d="m 45.62,15.02 h 16.62 v 0.19845 H 45.62 Z"
       style="fill:none;stroke:#231f20;stroke-width:0.1;stroke-linecap:butt;stroke-linejoin:miter;stroke-miterlimit:10;stroke-dasharray:none;stroke-opacity:1"
       id="path84" /><path
       d="m 66.01,14.72 h 1.24 v 1.24 h -1.24 z"
       style="fill:#eae9e9;fill-opacity:1;fill-rule:nonzero;stroke:none"
       id="path86" /><path
       d="m 66.01,14.72 h 1.24 v 1.24 h -1.24 z"
       style="fill:none;stroke:#231f20;stroke-width:0.1;stroke-linecap:butt;stroke-linejoin:miter;stroke-miterlimit:10;stroke-dasharray:none;stroke-opacity:1"
       id="path88" /><path
       d="m 39.42,15.04 h 1.98 v 1.98 h -1.98 z"
       style="fill:#eae9e9;fill-opacity:1;fill-rule:nonzero;stroke:none"
       id="path90" /><path
       d="m 39.42,15.04 h 1.98 v 1.98 h -1.98 z"
       style="fill:none;stroke:#231f20;stroke-width:0.1;stroke-linecap:butt;stroke-linejoin:miter;stroke-miterlimit:10;stroke-dasharray:none;stroke-opacity:1"
       id="path92" /><path
       d="m 36.84,17.62 h 1.98 v 1.98 h -1.98 z"
       style="fill:#eae9e9;fill-opacity:1;fill-rule:nonzero;stroke:none"
       id="path94" /><path
       d="m 36.84,17.62 h 1.98 v 1.98 h -1.98 z"
       style="fill:none;stroke:#231f20;stroke-width:0.1;stroke-linecap:butt;stroke-linejoin:miter;stroke-miterlimit:10;stroke-dasharray:none;stroke-opacity:1"
       id="path96" /><path
       d="m 34.26,20.2 h 1.98 v 1.99 h -1.98 z"
       style="fill:#eae9e9;fill-opacity:1;fill-rule:nonzero;stroke:none"
       id="path98" /><path
       d="m 34.26,20.2 h 1.98 v 1.99 h -1.98 z"
       style="fill:none;stroke:#231f20;stroke-width:0.1;stroke-linecap:butt;stroke-linejoin:miter;stroke-miterlimit:10;stroke-dasharray:none;stroke-opacity:1"
       id="path100" /><path
       d="m 9.16,18.96 h 5.34 v 0.1981 H 9.16 Z"
       style="fill:#eae9e9;fill-opacity:1;fill-rule:nonzero;stroke:none"
       id="path102" /><path
       d="m 9.16,18.96 h 5.34 v 0.1981 H 9.16 Z"
       style="fill:none;stroke:#231f20;stroke-width:0.1;stroke-linecap:butt;stroke-linejoin:miter;stroke-miterlimit:10;stroke-dasharray:none;stroke-opacity:1"
       id="path104" /><path
       d="m 34.26,17.22 h 0.8925 v 1.19 H 34.26 Z"
       style="fill:#eae9e9;fill-opacity:1;fill-rule:nonzero;stroke:none"
       id="path106" /><path
       d="m 34.26,17.22 h 0.8925 v 1.19 H 34.26 Z"
       style="fill:none;stroke:#231f20;stroke-width:0.1;stroke-linecap:butt;stroke-linejoin:miter;stroke-miterlimit:10;stroke-dasharray:none;stroke-opacity:1"
       id="path108" /><path
       d="m 42,17.62 h 1.99 V 19.6 H 42 Z"
       style="fill:#eae9e9;fill-opacity:1;fill-rule:nonzero;stroke:none"
       id="path110" /><path
       d="m 42,17.62 h 1.99 V 19.6 H 42 Z"
       style="fill:none;stroke:#231f20;stroke-width:0.1;stroke-linecap:butt;stroke-linejoin:miter;stroke-miterlimit:10;stroke-dasharray:none;stroke-opacity:1"
       id="path112" /><path
       d="m 36.84,22.78 h 1.98 v 1.99 h -1.98 z"
       style="fill:#eae9e9;fill-opacity:1;fill-rule:nonzero;stroke:none"
       id="path114" /><path
       d="m 36.84,22.78 h 1.98 v 1.99 h -1.98 z"
       style="fill:none;stroke:#231f20;stroke-width:0.1;stroke-linecap:butt;stroke-linejoin:miter;stroke-miterlimit:10;stroke-dasharray:none;stroke-opacity:1"
       id="path116" /><path
       d="m 14.02,20.32 h 0.19845 v 2.89 H 14.02 Z"
       style="fill:#eae9e9;fill-opacity:1;fill-rule:nonzero;stroke:none"
       id="path118" /><path
       d="m 14.02,20.32 h 0.19845 v 2.89 H 14.02 Z"
       style="fill:none;stroke:#231f20;stroke-width:0.1;stroke-linecap:butt;stroke-linejoin:miter;stroke-miterlimit:10;stroke-dasharray:none;stroke-opacity:1"
       id="path120" /><path
       d="m 66.01,19.68 h 1.24 v 1.24 h -1.24 z"
       style="fill:#eae9e9;fill-opacity:1;fill-rule:nonzero;stroke:none"
       id="path122" /><path
       d="m 66.01,19.68 h 1.24 v 1.24 h -1.24 z"
       style="fill:none;stroke:#231f20;stroke-width:0.1;stroke-linecap:butt;stroke-linejoin:miter;stroke-miterlimit:10;stroke-dasharray:none;stroke-opacity:1"
       id="path124" /><path
       d="m 39.42,20.2 h 1.98 v 1.99 h -1.98 z"
       style="fill:#eae9e9;fill-opacity:1;fill-rule:nonzero;stroke:none"
       id="path126" /><path
       d="m 39.42,20.2 h 1.98 v 1.99 h -1.98 z"
       style="fill:none;stroke:#231f20;stroke-width:0.1;stroke-linecap:butt;stroke-linejoin:miter;stroke-miterlimit:10;stroke-dasharray:none;stroke-opacity:1"
       id="path128" /><path
       d="m 64.03,20.32 h 0.1981 v 2.69 H 64.03 Z"
       style="fill:#eae9e9;fill-opacity:1;fill-rule:nonzero;stroke:none"
       id="path130" /><path
       d="m 64.03,20.32 h 0.1981 v 2.69 H 64.03 Z"
       style="fill:none;stroke:#231f20;stroke-width:0.1;stroke-linecap:butt;stroke-linejoin:miter;stroke-miterlimit:10;stroke-dasharray:none;stroke-opacity:1"
       id="path132" /><path
       d="m 34.26,25.36 h 1.98 v 1.98 h -1.98 z"
       style="fill:#eae9e9;fill-opacity:1;fill-rule:nonzero;stroke:none"
       id="path134" /><path
       d="m 34.26,25.36 h 1.98 v 1.98 h -1.98 z"
       style="fill:none;stroke:#231f20;stroke-width:0.1;stroke-linecap:butt;stroke-linejoin:miter;stroke-miterlimit:10;stroke-dasharray:none;stroke-opacity:1"
       id="path136" /><path
       d="m 9.16,23.92 h 3.87 v 0.1981 H 9.16 Z"
       style="fill:#eae9e9;fill-opacity:1;fill-rule:nonzero;stroke:none"
       id="path138" /><path
       d="m 9.16,23.92 h 3.87 v 0.1981 H 9.16 Z"
       style="fill:none;stroke:#231f20;stroke-width:0.1;stroke-linecap:butt;stroke-linejoin:miter;stroke-miterlimit:10;stroke-dasharray:none;stroke-opacity:1"
       id="path140" /><path
       d="m 41.6,24.02 h 23.41 v 0.1995 H 41.6 Z"
       style="fill:#eae9e9;fill-opacity:1;fill-rule:nonzero;stroke:none"
       id="path142" /><path
       d="m 41.6,24.02 h 23.41 v 0.1995 H 41.6 Z"
       style="fill:none;stroke:#231f20;stroke-width:0.1;stroke-linecap:butt;stroke-linejoin:miter;stroke-miterlimit:10;stroke-dasharray:none;stroke-opacity:1"
       id="path144" /><path
       d="m 39.42,25.36 h 1.98 v 1.98 h -1.98 z"
       style="fill:#eae9e9;fill-opacity:1;fill-rule:nonzero;stroke:none"
       id="path146" /><path
       d="m 39.42,25.36 h 1.98 v 1.98 h -1.98 z"
       style="fill:none;stroke:#231f20;stroke-width:0.1;stroke-linecap:butt;stroke-linejoin:miter;stroke-miterlimit:10;stroke-dasharray:none;stroke-opacity:1"
       id="path148" /><path
       d="m 64.94,22.68 h 1.57 v 0.1981 h -1.57 z"
       style="fill:#eae9e9;fill-opacity:1;fill-rule:nonzero;stroke:none"
       id="path150" /><path
       d="m 64.94,22.68 h 1.57 v 0.1981 h -1.57 z"
       style="fill:none;stroke:#231f20;stroke-width:0.1;stroke-linecap:butt;stroke-linejoin:miter;stroke-miterlimit:10;stroke-dasharray:none;stroke-opacity:1"
       id="path152" /><path
       d="m 68.49,22.16 h 1.24 v 1.24 h -1.24 z"
       style="fill:#eae9e9;fill-opacity:1;fill-rule:nonzero;stroke:none"
       id="path154" /><path
       d="m 68.49,22.16 h 1.24 v 1.24 h -1.24 z"
       style="fill:none;stroke:#231f20;stroke-width:0.1;stroke-linecap:butt;stroke-linejoin:miter;stroke-miterlimit:10;stroke-dasharray:none;stroke-opacity:1"
       id="path156" /><path
       d="m 43.19,25.36 h 1.19 v 0.89285 h -1.19 z"
       style="fill:#eae9e9;fill-opacity:1;fill-rule:nonzero;stroke:none"
       id="path158" /><path
       d="m 43.19,25.36 h 1.19 v 0.89285 h -1.19 z"
       style="fill:none;stroke:#231f20;stroke-width:0.1;stroke-linecap:butt;stroke-linejoin:miter;stroke-miterlimit:10;stroke-dasharray:none;stroke-opacity:1"
       id="path160" /><path
       d="m 20.2,31.13 h 0.1981 V 56.14 H 20.2 Z"
       style="fill:#eae9e9;fill-opacity:1;fill-rule:nonzero;stroke:none"
       id="path162" /><path
       d="m 20.2,31.13 h 0.1981 V 56.14 H 20.2 Z"
       style="fill:none;stroke:#231f20;stroke-width:0.1;stroke-linecap:butt;stroke-linejoin:miter;stroke-miterlimit:10;stroke-dasharray:none;stroke-opacity:1"
       id="path164" /><path
       d="m 23.92,35.8 h 0.1981 V 53.44 H 23.92 Z"
       style="fill:#eae9e9;fill-opacity:1;fill-rule:nonzero;stroke:none"
       id="path166" /><path
       d="m 23.92,35.8 h 0.1981 V 53.44 H 23.92 Z"
       style="fill:none;stroke:#231f20;stroke-width:0.1;stroke-linecap:butt;stroke-linejoin:miter;stroke-miterlimit:10;stroke-dasharray:none;stroke-opacity:1"
       id="path168" /><path
       d="m 58.57,39.13 h 0.1981 v 5.16 H 58.57 Z"
       style="fill:#eae9e9;fill-opacity:1;fill-rule:nonzero;stroke:none"
       id="path170" /><path
       d="m 58.57,39.13 h 0.1981 v 5.16 H 58.57 Z"
       style="fill:none;stroke:#231f20;stroke-width:0.1;stroke-linecap:butt;stroke-linejoin:miter;stroke-miterlimit:10;stroke-dasharray:none;stroke-opacity:1"
       id="path172" /><path
       d="m 35.08,40.37 h 0.19845 V 56.14 H 35.08 Z"
       style="fill:#eae9e9;fill-opacity:1;fill-rule:nonzero;stroke:none"
       id="path174" /><path
       d="m 35.08,40.37 h 0.19845 V 56.14 H 35.08 Z"
       style="fill:none;stroke:#231f20;stroke-width:0.1;stroke-linecap:butt;stroke-linejoin:miter;stroke-miterlimit:10;stroke-dasharray:none;stroke-opacity:1"
       id="path176" /><path
       d="m 59.88,45.8 h 0.1995 v 7.96 H 59.88 Z"
       style="fill:#eae9e9;fill-opacity:1;fill-rule:nonzero;stroke:none"
       id="path178" /><path
       d="m 59.88,45.8 h 0.1995 v 7.96 H 59.88 Z"
       style="fill:none;stroke:#231f20;stroke-width:0.1;stroke-linecap:butt;stroke-linejoin:miter;stroke-miterlimit:10;stroke-dasharray:none;stroke-opacity:1"
       id="path180" /><path
       d="m 42.52,53.68 h 0.19845 v 2.46 H 42.52 Z"
       style="fill:#eae9e9;fill-opacity:1;fill-rule:nonzero;stroke:none"
       id="path182" /><path
       d="m 42.52,53.68 h 0.19845 v 2.46 H 42.52 Z"
       style="fill:none;stroke:#231f20;stroke-width:0.1;stroke-linecap:butt;stroke-linejoin:miter;stroke-miterlimit:10;stroke-dasharray:none;stroke-opacity:1"
       id="path184" /><path
       d="m 58.57,49.44 h 0.1981 V 51.8 H 58.57 Z"
       style="fill:#eae9e9;fill-opacity:1;fill-rule:nonzero;stroke:none"
       id="path186" /><path
       d="m 58.57,49.44 h 0.1981 V 51.8 H 58.57 Z"
       style="fill:none;stroke:#231f20;stroke-width:0.1;stroke-linecap:butt;stroke-linejoin:miter;stroke-miterlimit:10;stroke-dasharray:none;stroke-opacity:1"
       id="path188" /><path
       d="m 6.78,52.44 h 2.23 v 0.1981 H 6.78 Z"
       style="fill:#eae9e9;fill-opacity:1;fill-rule:nonzero;stroke:none"
       id="path190" /><path
       d="m 6.78,52.44 h 2.23 v 0.1981 H 6.78 Z"
       style="fill:none;stroke:#231f20;stroke-width:0.1;stroke-linecap:butt;stroke-linejoin:miter;stroke-miterlimit:10;stroke-dasharray:none;stroke-opacity:1"
       id="path192" /><path
       d="m 12.86,53.68 h 1.24 v 0.1981 h -1.24 z"
       style="fill:#eae9e9;fill-opacity:1;fill-rule:nonzero;stroke:none"
       id="path194" /><path
       d="m 12.86,53.68 h 1.24 v 0.1981 h -1.24 z"
       style="fill:none;stroke:#231f20;stroke-width:0.1;stroke-linecap:butt;stroke-linejoin:miter;stroke-miterlimit:10;stroke-dasharray:none;stroke-opacity:1"
       id="path196" /><path
       d="m 64.15,53.68 h 1.24 v 0.1981 h -1.24 z"
       style="fill:#eae9e9;fill-opacity:1;fill-rule:nonzero;stroke:none"
       id="path198" /><path
       d="m 64.15,53.68 h 1.24 v 0.1981 h -1.24 z"
       style="fill:none;stroke:#231f20;stroke-width:0.1;stroke-linecap:butt;stroke-linejoin:miter;stroke-miterlimit:10;stroke-dasharray:none;stroke-opacity:1"
       id="path200" /><path
       d="m 14.62,54.4 h 0.1981 v 1.24 H 14.62 Z"
       style="fill:#eae9e9;fill-opacity:1;fill-rule:nonzero;stroke:none"
       id="path202" /><path
       d="m 14.62,54.4 h 0.1981 v 1.24 H 14.62 Z"
       style="fill:none;stroke:#231f20;stroke-width:0.1;stroke-linecap:butt;stroke-linejoin:miter;stroke-miterlimit:10;stroke-dasharray:none;stroke-opacity:1"
       id="path204" /><path
       d="m 63.43,54.4 h 0.1981 v 1.24 H 63.43 Z"
       style="fill:#eae9e9;fill-opacity:1;fill-rule:nonzero;stroke:none"
       id="path206" /><path
       d="m 63.43,54.4 h 0.1981 v 1.24 H 63.43 Z"
       style="fill:none;stroke:#231f20;stroke-width:0.1;stroke-linecap:butt;stroke-linejoin:miter;stroke-miterlimit:10;stroke-dasharray:none;stroke-opacity:1"
       id="path208" /><path
       d="m 34.61,54.8 h 0.721 v 0.721 H 34.61 Z"
       style="fill:#ed1c24;fill-opacity:1;fill-rule:nonzero;stroke:none"
       id="path210" /></g></svg>
