<?xml version="1.0" encoding="UTF-8" standalone="no"?>
<svg
   xmlns:dc="http://purl.org/dc/elements/1.1/"
   xmlns:cc="http://creativecommons.org/ns#"
   xmlns:rdf="http://www.w3.org/1999/02/22-rdf-syntax-ns#"
   xmlns:svg="http://www.w3.org/2000/svg"
   xmlns="http://www.w3.org/2000/svg"
   version="1.1"
   id="svg2"
   xml:space="preserve"
   width="104.33333"
   height="80.58667"
   viewBox="0 0 104.33333 80.58667"><metadata
     id="metadata8"><rdf:RDF><cc:Work
         rdf:about=""><dc:format>image/svg+xml</dc:format><dc:type
           rdf:resource="http://purl.org/dc/dcmitype/StillImage" /></cc:Work></rdf:RDF></metadata><defs
     id="defs6" /><g
     id="g10"
     transform="matrix(1.3333333,0,0,-1.3333333,0,80.586667)"><path
       d="m 38.03,9.88 h 1.19 v 0.8939 h -1.19 z"
       style="fill:#eae9e9;fill-opacity:1;fill-rule:nonzero;stroke:none"
       id="path12" /><path
       d="m 38.03,9.88 h 1.19 v 0.8939 h -1.19 z"
       style="fill:none;stroke:#231f20;stroke-width:0.1;stroke-linecap:butt;stroke-linejoin:miter;stroke-miterlimit:10;stroke-dasharray:none;stroke-opacity:1"
       id="path14" /><path
       d="m 40.61,9.88 h 1.19 v 0.8939 h -1.19 z"
       style="fill:#eae9e9;fill-opacity:1;fill-rule:nonzero;stroke:none"
       id="path16" /><path
       d="m 40.61,9.88 h 1.19 v 0.8939 h -1.19 z"
       style="fill:none;stroke:#231f20;stroke-width:0.1;stroke-linecap:butt;stroke-linejoin:miter;stroke-miterlimit:10;stroke-dasharray:none;stroke-opacity:1"
       id="path18" /><path
       d="m 35.45,9.88 h 1.19 v 0.8939 h -1.19 z"
       style="fill:#eae9e9;fill-opacity:1;fill-rule:nonzero;stroke:none"
       id="path20" /><path
       d="m 35.45,9.88 h 1.19 v 0.8939 h -1.19 z"
       style="fill:none;stroke:#231f20;stroke-width:0.1;stroke-linecap:butt;stroke-linejoin:miter;stroke-miterlimit:10;stroke-dasharray:none;stroke-opacity:1"
       id="path22" /><path
       d="m 43.19,9.88 h 1.19 v 0.8939 h -1.19 z"
       style="fill:#eae9e9;fill-opacity:1;fill-rule:nonzero;stroke:none"
       id="path24" /><path
       d="m 43.19,9.88 h 1.19 v 0.8939 h -1.19 z"
       style="fill:none;stroke:#231f20;stroke-width:0.1;stroke-linecap:butt;stroke-linejoin:miter;stroke-miterlimit:10;stroke-dasharray:none;stroke-opacity:1"
       id="path26" /><path
       d="m 11.74,10.28 h 9.12 v 0.19845 h -9.12 z"
       style="fill:#eae9e9;fill-opacity:1;fill-rule:nonzero;stroke:none"
       id="path28" /><path
       d="m 11.74,10.28 h 9.12 v 0.19845 h -9.12 z"
       style="fill:none;stroke:#231f20;stroke-width:0.1;stroke-linecap:butt;stroke-linejoin:miter;stroke-miterlimit:10;stroke-dasharray:none;stroke-opacity:1"
       id="path30" /><path
       d="m 32.08,9.88 h 1.98 v 0.8939 h -1.98 z"
       style="fill:#eae9e9;fill-opacity:1;fill-rule:nonzero;stroke:none"
       id="path32" /><path
       d="m 32.08,9.88 h 1.98 v 0.8939 h -1.98 z"
       style="fill:none;stroke:#231f20;stroke-width:0.1;stroke-linecap:butt;stroke-linejoin:miter;stroke-miterlimit:10;stroke-dasharray:none;stroke-opacity:1"
       id="path34" /><path
       d="m 46.96,9.48 h 1.98 v 1.29 h -1.98 z"
       style="fill:#eae9e9;fill-opacity:1;fill-rule:nonzero;stroke:none"
       id="path36" /><path
       d="m 46.96,9.48 h 1.98 v 1.29 h -1.98 z"
       style="fill:none;stroke:#231f20;stroke-width:0.1;stroke-linecap:butt;stroke-linejoin:miter;stroke-miterlimit:10;stroke-dasharray:none;stroke-opacity:1"
       id="path38" /><path
       d="m 57.39,10.28 h 9.12 v 0.19845 h -9.12 z"
       style="fill:#eae9e9;fill-opacity:1;fill-rule:nonzero;stroke:none"
       id="path40" /><path
       d="m 57.39,10.28 h 9.12 v 0.19845 h -9.12 z"
       style="fill:none;stroke:#231f20;stroke-width:0.1;stroke-linecap:butt;stroke-linejoin:miter;stroke-miterlimit:10;stroke-dasharray:none;stroke-opacity:1"
       id="path42" /><path
       d="m 36.45,13.55 h 1.19 v 0.89425 h -1.19 z"
       style="fill:#eae9e9;fill-opacity:1;fill-rule:nonzero;stroke:none"
       id="path44" /><path
       d="m 36.45,13.55 h 1.19 v 0.89425 h -1.19 z"
       style="fill:none;stroke:#231f20;stroke-width:0.1;stroke-linecap:butt;stroke-linejoin:miter;stroke-miterlimit:10;stroke-dasharray:none;stroke-opacity:1"
       id="path46" /><path
       d="m 16.01,14.12 h 0.19845 v 1.49 H 16.01 Z"
       style="fill:#eae9e9;fill-opacity:1;fill-rule:nonzero;stroke:none"
       id="path48" /><path
       d="m 16.01,14.12 h 0.19845 v 1.49 H 16.01 Z"
       style="fill:none;stroke:#231f20;stroke-width:0.1;stroke-linecap:butt;stroke-linejoin:miter;stroke-miterlimit:10;stroke-dasharray:none;stroke-opacity:1"
       id="path50" /><path
       d="m 62.04,14 h 7.17 v 0.19845 h -7.17 z"
       style="fill:#eae9e9;fill-opacity:1;fill-rule:nonzero;stroke:none"
       id="path52" /><path
       d="m 62.04,14 h 7.17 v 0.19845 h -7.17 z"
       style="fill:none;stroke:#231f20;stroke-width:0.1;stroke-linecap:butt;stroke-linejoin:miter;stroke-miterlimit:10;stroke-dasharray:none;stroke-opacity:1"
       id="path54" /><path
       d="m 39.02,13.55 h 1.19 v 0.89425 h -1.19 z"
       style="fill:#eae9e9;fill-opacity:1;fill-rule:nonzero;stroke:none"
       id="path56" /><path
       d="m 39.02,13.55 h 1.19 v 0.89425 h -1.19 z"
       style="fill:none;stroke:#231f20;stroke-width:0.1;stroke-linecap:butt;stroke-linejoin:miter;stroke-miterlimit:10;stroke-dasharray:none;stroke-opacity:1"
       id="path58" /><path
       d="m 41.33,13.16 h 4.49 v 0.1981 h -4.49 z"
       style="fill:#eae9e9;fill-opacity:1;fill-rule:nonzero;stroke:none"
       id="path60" /><path
       d="m 41.33,13.16 h 4.49 v 0.1981 h -4.49 z"
       style="fill:none;stroke:#231f20;stroke-width:0.1;stroke-linecap:butt;stroke-linejoin:miter;stroke-miterlimit:10;stroke-dasharray:none;stroke-opacity:1"
       id="path62" /><path
       d="m 11,14.72 h 1.24 v 1.24 H 11 Z"
       style="fill:#eae9e9;fill-opacity:1;fill-rule:nonzero;stroke:none"
       id="path64" /><path
       d="m 11,14.72 h 1.24 v 1.24 H 11 Z"
       style="fill:none;stroke:#231f20;stroke-width:0.1;stroke-linecap:butt;stroke-linejoin:miter;stroke-miterlimit:10;stroke-dasharray:none;stroke-opacity:1"
       id="path66" /><path
       d="m 40.61,15.04 h 1.19 v 0.89285 h -1.19 z"
       style="fill:#eae9e9;fill-opacity:1;fill-rule:nonzero;stroke:none"
       id="path68" /><path
       d="m 40.61,15.04 h 1.19 v 0.89285 h -1.19 z"
       style="fill:none;stroke:#231f20;stroke-width:0.1;stroke-linecap:butt;stroke-linejoin:miter;stroke-miterlimit:10;stroke-dasharray:none;stroke-opacity:1"
       id="path70" /><path
       d="m 45.3,16.08 h 17.34 v 0.19845 H 45.3 Z"
       style="fill:#eae9e9;fill-opacity:1;fill-rule:nonzero;stroke:none"
       id="path72" /><path
       d="m 45.3,16.08 h 17.34 v 0.19845 H 45.3 Z"
       style="fill:none;stroke:#231f20;stroke-width:0.1;stroke-linecap:butt;stroke-linejoin:miter;stroke-miterlimit:10;stroke-dasharray:none;stroke-opacity:1"
       id="path74" /><path
       d="m 8.52,14.72 h 1.24 v 1.24 H 8.52 Z"
       style="fill:#eae9e9;fill-opacity:1;fill-rule:nonzero;stroke:none"
       id="path76" /><path
       d="m 8.52,14.72 h 1.24 v 1.24 H 8.52 Z"
       style="fill:none;stroke:#231f20;stroke-width:0.1;stroke-linecap:butt;stroke-linejoin:miter;stroke-miterlimit:10;stroke-dasharray:none;stroke-opacity:1"
       id="path78" /><path
       d="m 15.21,17.55 h 18.48 v 0.1981 H 15.21 Z"
       style="fill:#eae9e9;fill-opacity:1;fill-rule:nonzero;stroke:none"
       id="path80" /><path
       d="m 15.21,17.55 h 18.48 v 0.1981 H 15.21 Z"
       style="fill:none;stroke:#231f20;stroke-width:0.1;stroke-linecap:butt;stroke-linejoin:miter;stroke-miterlimit:10;stroke-dasharray:none;stroke-opacity:1"
       id="path82" /><path
       d="m 38.03,17.62 h 1.19 v 0.89285 h -1.19 z"
       style="fill:#eae9e9;fill-opacity:1;fill-rule:nonzero;stroke:none"
       id="path84" /><path
       d="m 38.03,17.62 h 1.19 v 0.89285 h -1.19 z"
       style="fill:none;stroke:#231f20;stroke-width:0.1;stroke-linecap:butt;stroke-linejoin:miter;stroke-miterlimit:10;stroke-dasharray:none;stroke-opacity:1"
       id="path86" /><path
       d="m 40.61,17.62 h 1.19 v 0.89285 h -1.19 z"
       style="fill:#eae9e9;fill-opacity:1;fill-rule:nonzero;stroke:none"
       id="path88" /><path
       d="m 40.61,17.62 h 1.19 v 0.89285 h -1.19 z"
       style="fill:none;stroke:#231f20;stroke-width:0.1;stroke-linecap:butt;stroke-linejoin:miter;stroke-miterlimit:10;stroke-dasharray:none;stroke-opacity:1"
       id="path90" /><path
       d="m 35.35,21.39 h 0.8939 v 1.19 H 35.35 Z"
       style="fill:#eae9e9;fill-opacity:1;fill-rule:nonzero;stroke:none"
       id="path92" /><path
       d="m 35.35,21.39 h 0.8939 v 1.19 H 35.35 Z"
       style="fill:none;stroke:#231f20;stroke-width:0.1;stroke-linecap:butt;stroke-linejoin:miter;stroke-miterlimit:10;stroke-dasharray:none;stroke-opacity:1"
       id="path94" /><path
       d="m 14.42,21.29 h 19.92 v 0.19845 H 14.42 Z"
       style="fill:#eae9e9;fill-opacity:1;fill-rule:nonzero;stroke:none"
       id="path96" /><path
       d="m 14.42,21.29 h 19.92 v 0.19845 H 14.42 Z"
       style="fill:none;stroke:#231f20;stroke-width:0.1;stroke-linecap:butt;stroke-linejoin:miter;stroke-miterlimit:10;stroke-dasharray:none;stroke-opacity:1"
       id="path98" /><path
       d="m 35.45,17.62 h 1.19 v 0.89285 h -1.19 z"
       style="fill:#eae9e9;fill-opacity:1;fill-rule:nonzero;stroke:none"
       id="path100" /><path
       d="m 35.45,17.62 h 1.19 v 0.89285 h -1.19 z"
       style="fill:none;stroke:#231f20;stroke-width:0.1;stroke-linecap:butt;stroke-linejoin:miter;stroke-miterlimit:10;stroke-dasharray:none;stroke-opacity:1"
       id="path102" /><path
       d="m 63.23,17.72 h 3.27 v 0.1995 h -3.27 z"
       style="fill:#eae9e9;fill-opacity:1;fill-rule:nonzero;stroke:none"
       id="path104" /><path
       d="m 63.23,17.72 h 3.27 v 0.1995 h -3.27 z"
       style="fill:none;stroke:#231f20;stroke-width:0.1;stroke-linecap:butt;stroke-linejoin:miter;stroke-miterlimit:10;stroke-dasharray:none;stroke-opacity:1"
       id="path106" /><path
       d="m 43.19,17.62 h 1.19 v 0.89285 h -1.19 z"
       style="fill:#eae9e9;fill-opacity:1;fill-rule:nonzero;stroke:none"
       id="path108" /><path
       d="m 43.19,17.62 h 1.19 v 0.89285 h -1.19 z"
       style="fill:none;stroke:#231f20;stroke-width:0.1;stroke-linecap:butt;stroke-linejoin:miter;stroke-miterlimit:10;stroke-dasharray:none;stroke-opacity:1"
       id="path110" /><path
       d="m 42,19.8 h 0.89285 v 1.19 H 42 Z"
       style="fill:#eae9e9;fill-opacity:1;fill-rule:nonzero;stroke:none"
       id="path112" /><path
       d="m 42,19.8 h 0.89285 v 1.19 H 42 Z"
       style="fill:none;stroke:#231f20;stroke-width:0.1;stroke-linecap:butt;stroke-linejoin:miter;stroke-miterlimit:10;stroke-dasharray:none;stroke-opacity:1"
       id="path114" /><path
       d="m 8.52,19.68 h 1.24 v 1.24 H 8.52 Z"
       style="fill:#eae9e9;fill-opacity:1;fill-rule:nonzero;stroke:none"
       id="path116" /><path
       d="m 8.52,19.68 h 1.24 v 1.24 H 8.52 Z"
       style="fill:none;stroke:#231f20;stroke-width:0.1;stroke-linecap:butt;stroke-linejoin:miter;stroke-miterlimit:10;stroke-dasharray:none;stroke-opacity:1"
       id="path118" /><path
       d="m 38.03,22.78 h 1.19 v 0.89285 h -1.19 z"
       style="fill:#eae9e9;fill-opacity:1;fill-rule:nonzero;stroke:none"
       id="path120" /><path
       d="m 38.03,22.78 h 1.19 v 0.89285 h -1.19 z"
       style="fill:none;stroke:#231f20;stroke-width:0.1;stroke-linecap:butt;stroke-linejoin:miter;stroke-miterlimit:10;stroke-dasharray:none;stroke-opacity:1"
       id="path122" /><path
       d="m 11,19.68 h 1.24 v 1.24 H 11 Z"
       style="fill:#eae9e9;fill-opacity:1;fill-rule:nonzero;stroke:none"
       id="path124" /><path
       d="m 11,19.68 h 1.24 v 1.24 H 11 Z"
       style="fill:none;stroke:#231f20;stroke-width:0.1;stroke-linecap:butt;stroke-linejoin:miter;stroke-miterlimit:10;stroke-dasharray:none;stroke-opacity:1"
       id="path126" /><path
       d="m 36.84,19.8 h 0.8925 v 1.19 H 36.84 Z"
       style="fill:#eae9e9;fill-opacity:1;fill-rule:nonzero;stroke:none"
       id="path128" /><path
       d="m 36.84,19.8 h 0.8925 v 1.19 H 36.84 Z"
       style="fill:none;stroke:#231f20;stroke-width:0.1;stroke-linecap:butt;stroke-linejoin:miter;stroke-miterlimit:10;stroke-dasharray:none;stroke-opacity:1"
       id="path130" /><path
       d="m 39.42,19.8 h 0.89285 v 1.19 H 39.42 Z"
       style="fill:#eae9e9;fill-opacity:1;fill-rule:nonzero;stroke:none"
       id="path132" /><path
       d="m 39.42,19.8 h 0.89285 v 1.19 H 39.42 Z"
       style="fill:none;stroke:#231f20;stroke-width:0.1;stroke-linecap:butt;stroke-linejoin:miter;stroke-miterlimit:10;stroke-dasharray:none;stroke-opacity:1"
       id="path134" /><path
       d="m 69.01,20.42 h 0.1981 v 1.1 H 69.01 Z"
       style="fill:#eae9e9;fill-opacity:1;fill-rule:nonzero;stroke:none"
       id="path136" /><path
       d="m 69.01,20.42 h 0.1981 v 1.1 H 69.01 Z"
       style="fill:none;stroke:#231f20;stroke-width:0.1;stroke-linecap:butt;stroke-linejoin:miter;stroke-miterlimit:10;stroke-dasharray:none;stroke-opacity:1"
       id="path138" /><path
       d="m 40.61,22.78 h 1.19 v 0.89285 h -1.19 z"
       style="fill:#eae9e9;fill-opacity:1;fill-rule:nonzero;stroke:none"
       id="path140" /><path
       d="m 40.61,22.78 h 1.19 v 0.89285 h -1.19 z"
       style="fill:none;stroke:#231f20;stroke-width:0.1;stroke-linecap:butt;stroke-linejoin:miter;stroke-miterlimit:10;stroke-dasharray:none;stroke-opacity:1"
       id="path142" /><path
       d="m 35.45,25.36 h 1.19 v 0.89285 h -1.19 z"
       style="fill:#eae9e9;fill-opacity:1;fill-rule:nonzero;stroke:none"
       id="path144" /><path
       d="m 35.45,25.36 h 1.19 v 0.89285 h -1.19 z"
       style="fill:none;stroke:#231f20;stroke-width:0.1;stroke-linecap:butt;stroke-linejoin:miter;stroke-miterlimit:10;stroke-dasharray:none;stroke-opacity:1"
       id="path146" /><path
       d="m 12.83,26.45 h 21.51 v 0.19985 H 12.83 Z"
       style="fill:#eae9e9;fill-opacity:1;fill-rule:nonzero;stroke:none"
       id="path148" /><path
       d="m 12.83,26.45 h 21.51 v 0.19985 H 12.83 Z"
       style="fill:none;stroke:#231f20;stroke-width:0.1;stroke-linecap:butt;stroke-linejoin:miter;stroke-miterlimit:10;stroke-dasharray:none;stroke-opacity:1"
       id="path150" /><path
       d="m 38.03,25.36 h 1.19 v 0.89285 h -1.19 z"
       style="fill:#eae9e9;fill-opacity:1;fill-rule:nonzero;stroke:none"
       id="path152" /><path
       d="m 38.03,25.36 h 1.19 v 0.89285 h -1.19 z"
       style="fill:none;stroke:#231f20;stroke-width:0.1;stroke-linecap:butt;stroke-linejoin:miter;stroke-miterlimit:10;stroke-dasharray:none;stroke-opacity:1"
       id="path154" /><path
       d="m 40.61,25.36 h 1.19 v 0.89285 h -1.19 z"
       style="fill:#eae9e9;fill-opacity:1;fill-rule:nonzero;stroke:none"
       id="path156" /><path
       d="m 40.61,25.36 h 1.19 v 0.89285 h -1.19 z"
       style="fill:none;stroke:#231f20;stroke-width:0.1;stroke-linecap:butt;stroke-linejoin:miter;stroke-miterlimit:10;stroke-dasharray:none;stroke-opacity:1"
       id="path158" /><path
       d="m 34.26,27.54 h 0.8925 v 1.19 H 34.26 Z"
       style="fill:#eae9e9;fill-opacity:1;fill-rule:nonzero;stroke:none"
       id="path160" /><path
       d="m 34.26,27.54 h 0.8925 v 1.19 H 34.26 Z"
       style="fill:none;stroke:#231f20;stroke-width:0.1;stroke-linecap:butt;stroke-linejoin:miter;stroke-miterlimit:10;stroke-dasharray:none;stroke-opacity:1"
       id="path162" /><path
       d="m 27.64,53.48 h 0.1981 v 2.66 H 27.64 Z"
       style="fill:#eae9e9;fill-opacity:1;fill-rule:nonzero;stroke:none"
       id="path164" /><path
       d="m 27.64,53.48 h 0.1981 v 2.66 H 27.64 Z"
       style="fill:none;stroke:#231f20;stroke-width:0.1;stroke-linecap:butt;stroke-linejoin:miter;stroke-miterlimit:10;stroke-dasharray:none;stroke-opacity:1"
       id="path166" /><path
       d="m 38.21,25.24 h 0.721 v 0.721 H 38.21 Z"
       style="fill:#fff200;fill-opacity:1;fill-rule:nonzero;stroke:none"
       id="path168" /></g></svg>
