<?xml version="1.0" encoding="UTF-8" standalone="no"?>
<svg
   xmlns:dc="http://purl.org/dc/elements/1.1/"
   xmlns:cc="http://creativecommons.org/ns#"
   xmlns:rdf="http://www.w3.org/1999/02/22-rdf-syntax-ns#"
   xmlns:svg="http://www.w3.org/2000/svg"
   xmlns="http://www.w3.org/2000/svg"
   version="1.1"
   id="svg2"
   xml:space="preserve"
   width="104.33333"
   height="80.58667"
   viewBox="0 0 104.33333 80.58667"><metadata
     id="metadata8"><rdf:RDF><cc:Work
         rdf:about=""><dc:format>image/svg+xml</dc:format><dc:type
           rdf:resource="http://purl.org/dc/dcmitype/StillImage" /></cc:Work></rdf:RDF></metadata><defs
     id="defs6" /><g
     id="g10"
     transform="matrix(1.3333333,0,0,-1.3333333,0,80.586667)"><path
       d="m 36.84,9.48 h 0.8925 v 1.19 H 36.84 Z"
       style="fill:#eae9e9;fill-opacity:1;fill-rule:nonzero;stroke:none"
       id="path12" /><path
       d="m 36.84,9.48 h 0.8925 v 1.19 H 36.84 Z"
       style="fill:none;stroke:#231f20;stroke-width:0.1;stroke-linecap:butt;stroke-linejoin:miter;stroke-miterlimit:10;stroke-dasharray:none;stroke-opacity:1"
       id="path14" /><path
       d="m 39.42,9.48 h 0.89285 v 1.19 H 39.42 Z"
       style="fill:#eae9e9;fill-opacity:1;fill-rule:nonzero;stroke:none"
       id="path16" /><path
       d="m 39.42,9.48 h 0.89285 v 1.19 H 39.42 Z"
       style="fill:none;stroke:#231f20;stroke-width:0.1;stroke-linecap:butt;stroke-linejoin:miter;stroke-miterlimit:10;stroke-dasharray:none;stroke-opacity:1"
       id="path18" /><path
       d="m 34.26,9.48 h 0.8925 v 1.19 H 34.26 Z"
       style="fill:#eae9e9;fill-opacity:1;fill-rule:nonzero;stroke:none"
       id="path20" /><path
       d="m 34.26,9.48 h 0.8925 v 1.19 H 34.26 Z"
       style="fill:none;stroke:#231f20;stroke-width:0.1;stroke-linecap:butt;stroke-linejoin:miter;stroke-miterlimit:10;stroke-dasharray:none;stroke-opacity:1"
       id="path22" /><path
       d="m 42,9.48 h 0.89285 v 1.19 H 42 Z"
       style="fill:#eae9e9;fill-opacity:1;fill-rule:nonzero;stroke:none"
       id="path24" /><path
       d="m 42,9.48 h 0.89285 v 1.19 H 42 Z"
       style="fill:none;stroke:#231f20;stroke-width:0.1;stroke-linecap:butt;stroke-linejoin:miter;stroke-miterlimit:10;stroke-dasharray:none;stroke-opacity:1"
       id="path26" /><path
       d="m 55.4,12.76 h 11.11 v 0.19845 H 55.4 Z"
       style="fill:#eae9e9;fill-opacity:1;fill-rule:nonzero;stroke:none"
       id="path28" /><path
       d="m 55.4,12.76 h 11.11 v 0.19845 H 55.4 Z"
       style="fill:none;stroke:#231f20;stroke-width:0.1;stroke-linecap:butt;stroke-linejoin:miter;stroke-miterlimit:10;stroke-dasharray:none;stroke-opacity:1"
       id="path30" /><path
       d="m 38.03,12.46 h 1.19 v 0.8925 h -1.19 z"
       style="fill:#eae9e9;fill-opacity:1;fill-rule:nonzero;stroke:none"
       id="path32" /><path
       d="m 38.03,12.46 h 1.19 v 0.8925 h -1.19 z"
       style="fill:none;stroke:#231f20;stroke-width:0.1;stroke-linecap:butt;stroke-linejoin:miter;stroke-miterlimit:10;stroke-dasharray:none;stroke-opacity:1"
       id="path34" /><path
       d="m 40.61,12.46 h 1.19 v 0.8925 h -1.19 z"
       style="fill:#eae9e9;fill-opacity:1;fill-rule:nonzero;stroke:none"
       id="path36" /><path
       d="m 40.61,12.46 h 1.19 v 0.8925 h -1.19 z"
       style="fill:none;stroke:#231f20;stroke-width:0.1;stroke-linecap:butt;stroke-linejoin:miter;stroke-miterlimit:10;stroke-dasharray:none;stroke-opacity:1"
       id="path38" /><path
       d="m 15.61,16.48 h 17.66 v 0.19845 H 15.61 Z"
       style="fill:#eae9e9;fill-opacity:1;fill-rule:nonzero;stroke:none"
       id="path40" /><path
       d="m 15.61,16.48 h 17.66 v 0.19845 H 15.61 Z"
       style="fill:none;stroke:#231f20;stroke-width:0.1;stroke-linecap:butt;stroke-linejoin:miter;stroke-miterlimit:10;stroke-dasharray:none;stroke-opacity:1"
       id="path42" /><path
       d="m 36.45,16.13 h 1.19 v 0.89285 h -1.19 z"
       style="fill:#eae9e9;fill-opacity:1;fill-rule:nonzero;stroke:none"
       id="path44" /><path
       d="m 36.45,16.13 h 1.19 v 0.89285 h -1.19 z"
       style="fill:none;stroke:#231f20;stroke-width:0.1;stroke-linecap:butt;stroke-linejoin:miter;stroke-miterlimit:10;stroke-dasharray:none;stroke-opacity:1"
       id="path46" /><path
       d="m 39.02,16.13 h 1.19 v 0.89285 h -1.19 z"
       style="fill:#eae9e9;fill-opacity:1;fill-rule:nonzero;stroke:none"
       id="path48" /><path
       d="m 39.02,16.13 h 1.19 v 0.89285 h -1.19 z"
       style="fill:none;stroke:#231f20;stroke-width:0.1;stroke-linecap:butt;stroke-linejoin:miter;stroke-miterlimit:10;stroke-dasharray:none;stroke-opacity:1"
       id="path50" /><path
       d="m 37.93,18.81 h 0.89285 V 20 H 37.93 Z"
       style="fill:#eae9e9;fill-opacity:1;fill-rule:nonzero;stroke:none"
       id="path52" /><path
       d="m 37.93,18.81 h 0.89285 V 20 H 37.93 Z"
       style="fill:none;stroke:#231f20;stroke-width:0.1;stroke-linecap:butt;stroke-linejoin:miter;stroke-miterlimit:10;stroke-dasharray:none;stroke-opacity:1"
       id="path54" /><path
       d="m 62.84,16.48 h 6.38 v 0.19845 h -6.38 z"
       style="fill:#eae9e9;fill-opacity:1;fill-rule:nonzero;stroke:none"
       id="path56" /><path
       d="m 62.84,16.48 h 6.38 v 0.19845 h -6.38 z"
       style="fill:none;stroke:#231f20;stroke-width:0.1;stroke-linecap:butt;stroke-linejoin:miter;stroke-miterlimit:10;stroke-dasharray:none;stroke-opacity:1"
       id="path58" /><path
       d="m 40.51,18.81 h 0.89285 V 20 H 40.51 Z"
       style="fill:#eae9e9;fill-opacity:1;fill-rule:nonzero;stroke:none"
       id="path60" /><path
       d="m 40.51,18.81 h 0.89285 V 20 H 40.51 Z"
       style="fill:none;stroke:#231f20;stroke-width:0.1;stroke-linecap:butt;stroke-linejoin:miter;stroke-miterlimit:10;stroke-dasharray:none;stroke-opacity:1"
       id="path62" /><path
       d="m 33.87,21.29 h 1.19 v 0.89285 h -1.19 z"
       style="fill:#eae9e9;fill-opacity:1;fill-rule:nonzero;stroke:none"
       id="path64" /><path
       d="m 33.87,21.29 h 1.19 v 0.89285 h -1.19 z"
       style="fill:none;stroke:#231f20;stroke-width:0.1;stroke-linecap:butt;stroke-linejoin:miter;stroke-miterlimit:10;stroke-dasharray:none;stroke-opacity:1"
       id="path66" /><path
       d="m 35.35,18.81 h 0.8939 V 20 H 35.35 Z"
       style="fill:#eae9e9;fill-opacity:1;fill-rule:nonzero;stroke:none"
       id="path68" /><path
       d="m 35.35,18.81 h 0.8939 V 20 H 35.35 Z"
       style="fill:none;stroke:#231f20;stroke-width:0.1;stroke-linecap:butt;stroke-linejoin:miter;stroke-miterlimit:10;stroke-dasharray:none;stroke-opacity:1"
       id="path70" /><path
       d="m 43.09,18.81 h 0.89425 V 20 H 43.09 Z"
       style="fill:#eae9e9;fill-opacity:1;fill-rule:nonzero;stroke:none"
       id="path72" /><path
       d="m 43.09,18.81 h 0.89425 V 20 H 43.09 Z"
       style="fill:none;stroke:#231f20;stroke-width:0.1;stroke-linecap:butt;stroke-linejoin:miter;stroke-miterlimit:10;stroke-dasharray:none;stroke-opacity:1"
       id="path74" /><path
       d="m 43.09,21.39 h 0.89425 v 1.19 H 43.09 Z"
       style="fill:#eae9e9;fill-opacity:1;fill-rule:nonzero;stroke:none"
       id="path76" /><path
       d="m 43.09,21.39 h 0.89425 v 1.19 H 43.09 Z"
       style="fill:none;stroke:#231f20;stroke-width:0.1;stroke-linecap:butt;stroke-linejoin:miter;stroke-miterlimit:10;stroke-dasharray:none;stroke-opacity:1"
       id="path78" /><path
       d="m 36.45,23.87 h 1.19 v 0.89425 h -1.19 z"
       style="fill:#eae9e9;fill-opacity:1;fill-rule:nonzero;stroke:none"
       id="path80" /><path
       d="m 36.45,23.87 h 1.19 v 0.89425 h -1.19 z"
       style="fill:none;stroke:#231f20;stroke-width:0.1;stroke-linecap:butt;stroke-linejoin:miter;stroke-miterlimit:10;stroke-dasharray:none;stroke-opacity:1"
       id="path82" /><path
       d="m 37.93,21.39 h 0.89285 v 1.19 H 37.93 Z"
       style="fill:#eae9e9;fill-opacity:1;fill-rule:nonzero;stroke:none"
       id="path84" /><path
       d="m 37.93,21.39 h 0.89285 v 1.19 H 37.93 Z"
       style="fill:none;stroke:#231f20;stroke-width:0.1;stroke-linecap:butt;stroke-linejoin:miter;stroke-miterlimit:10;stroke-dasharray:none;stroke-opacity:1"
       id="path86" /><path
       d="m 40.51,21.39 h 0.89285 v 1.19 H 40.51 Z"
       style="fill:#eae9e9;fill-opacity:1;fill-rule:nonzero;stroke:none"
       id="path88" /><path
       d="m 40.51,21.39 h 0.89285 v 1.19 H 40.51 Z"
       style="fill:none;stroke:#231f20;stroke-width:0.1;stroke-linecap:butt;stroke-linejoin:miter;stroke-miterlimit:10;stroke-dasharray:none;stroke-opacity:1"
       id="path90" /><path
       d="m 64.42,21.44 h 4.79 v 0.1995 h -4.79 z"
       style="fill:#eae9e9;fill-opacity:1;fill-rule:nonzero;stroke:none"
       id="path92" /><path
       d="m 64.42,21.44 h 4.79 v 0.1995 h -4.79 z"
       style="fill:none;stroke:#231f20;stroke-width:0.1;stroke-linecap:butt;stroke-linejoin:miter;stroke-miterlimit:10;stroke-dasharray:none;stroke-opacity:1"
       id="path94" /><path
       d="m 39.02,23.87 h 1.19 v 0.89425 h -1.19 z"
       style="fill:#eae9e9;fill-opacity:1;fill-rule:nonzero;stroke:none"
       id="path96" /><path
       d="m 39.02,23.87 h 1.19 v 0.89425 h -1.19 z"
       style="fill:none;stroke:#231f20;stroke-width:0.1;stroke-linecap:butt;stroke-linejoin:miter;stroke-miterlimit:10;stroke-dasharray:none;stroke-opacity:1"
       id="path98" /><path
       d="m 33.87,26.45 h 1.19 v 0.89285 h -1.19 z"
       style="fill:#eae9e9;fill-opacity:1;fill-rule:nonzero;stroke:none"
       id="path100" /><path
       d="m 33.87,26.45 h 1.19 v 0.89285 h -1.19 z"
       style="fill:none;stroke:#231f20;stroke-width:0.1;stroke-linecap:butt;stroke-linejoin:miter;stroke-miterlimit:10;stroke-dasharray:none;stroke-opacity:1"
       id="path102" /><path
       d="m 11,22.16 h 1.24 V 23.4 H 11 Z"
       style="fill:#eae9e9;fill-opacity:1;fill-rule:nonzero;stroke:none"
       id="path104" /><path
       d="m 11,22.16 h 1.24 V 23.4 H 11 Z"
       style="fill:none;stroke:#231f20;stroke-width:0.1;stroke-linecap:butt;stroke-linejoin:miter;stroke-miterlimit:10;stroke-dasharray:none;stroke-opacity:1"
       id="path106" /><path
       d="m 13.23,22.8 h 0.1981 v 1.82 H 13.23 Z"
       style="fill:#eae9e9;fill-opacity:1;fill-rule:nonzero;stroke:none"
       id="path108" /><path
       d="m 13.23,22.8 h 0.1981 v 1.82 H 13.23 Z"
       style="fill:none;stroke:#231f20;stroke-width:0.1;stroke-linecap:butt;stroke-linejoin:miter;stroke-miterlimit:10;stroke-dasharray:none;stroke-opacity:1"
       id="path110" /><path
       d="m 36.45,26.45 h 1.19 v 0.89285 h -1.19 z"
       style="fill:#eae9e9;fill-opacity:1;fill-rule:nonzero;stroke:none"
       id="path112" /><path
       d="m 36.45,26.45 h 1.19 v 0.89285 h -1.19 z"
       style="fill:none;stroke:#231f20;stroke-width:0.1;stroke-linecap:butt;stroke-linejoin:miter;stroke-miterlimit:10;stroke-dasharray:none;stroke-opacity:1"
       id="path114" /><path
       d="m 64.82,22.68 h 0.19845 V 24.1 H 64.82 Z"
       style="fill:#eae9e9;fill-opacity:1;fill-rule:nonzero;stroke:none"
       id="path116" /><path
       d="m 64.82,22.68 h 0.19845 V 24.1 H 64.82 Z"
       style="fill:none;stroke:#231f20;stroke-width:0.1;stroke-linecap:butt;stroke-linejoin:miter;stroke-miterlimit:10;stroke-dasharray:none;stroke-opacity:1"
       id="path118" /><path
       d="m 39.02,26.45 h 1.19 v 0.89285 h -1.19 z"
       style="fill:#eae9e9;fill-opacity:1;fill-rule:nonzero;stroke:none"
       id="path120" /><path
       d="m 39.02,26.45 h 1.19 v 0.89285 h -1.19 z"
       style="fill:none;stroke:#231f20;stroke-width:0.1;stroke-linecap:butt;stroke-linejoin:miter;stroke-miterlimit:10;stroke-dasharray:none;stroke-opacity:1"
       id="path122" /><path
       d="m 41.6,26.45 h 1.19 v 0.89285 H 41.6 Z"
       style="fill:#eae9e9;fill-opacity:1;fill-rule:nonzero;stroke:none"
       id="path124" /><path
       d="m 41.6,26.45 h 1.19 v 0.89285 H 41.6 Z"
       style="fill:none;stroke:#231f20;stroke-width:0.1;stroke-linecap:butt;stroke-linejoin:miter;stroke-miterlimit:10;stroke-dasharray:none;stroke-opacity:1"
       id="path126" /><path
       d="m 33.87,29.03 h 1.19 v 0.8925 h -1.19 z"
       style="fill:#eae9e9;fill-opacity:1;fill-rule:nonzero;stroke:none"
       id="path128" /><path
       d="m 33.87,29.03 h 1.19 v 0.8925 h -1.19 z"
       style="fill:none;stroke:#231f20;stroke-width:0.1;stroke-linecap:butt;stroke-linejoin:miter;stroke-miterlimit:10;stroke-dasharray:none;stroke-opacity:1"
       id="path130" /><path
       d="m 20.2,31.01 h 15.15 v 0.1981 H 20.2 Z"
       style="fill:#eae9e9;fill-opacity:1;fill-rule:nonzero;stroke:none"
       id="path132" /><path
       d="m 20.2,31.01 h 15.15 v 0.1981 H 20.2 Z"
       style="fill:none;stroke:#231f20;stroke-width:0.1;stroke-linecap:butt;stroke-linejoin:miter;stroke-miterlimit:10;stroke-dasharray:none;stroke-opacity:1"
       id="path134" /><path
       d="m 23.92,53.36 h 3.92 v 0.1981 h -3.92 z"
       style="fill:#eae9e9;fill-opacity:1;fill-rule:nonzero;stroke:none"
       id="path136" /><path
       d="m 23.92,53.36 h 3.92 v 0.1981 h -3.92 z"
       style="fill:none;stroke:#231f20;stroke-width:0.1;stroke-linecap:butt;stroke-linejoin:miter;stroke-miterlimit:10;stroke-dasharray:none;stroke-opacity:1"
       id="path138" /><path
       d="m 24.64,39.13 h 0.1981 v 5.16 H 24.64 Z"
       style="fill:#eae9e9;fill-opacity:1;fill-rule:nonzero;stroke:none"
       id="path140" /><path
       d="m 24.64,39.13 h 0.1981 v 5.16 H 24.64 Z"
       style="fill:none;stroke:#231f20;stroke-width:0.1;stroke-linecap:butt;stroke-linejoin:miter;stroke-miterlimit:10;stroke-dasharray:none;stroke-opacity:1"
       id="path142" /><path
       d="m 41.82,26.68 h 0.721 v 0.721 H 41.82 Z"
       style="fill:#fff200;fill-opacity:1;fill-rule:nonzero;stroke:none"
       id="path144" /></g></svg>
