<?xml version="1.0" encoding="UTF-8" standalone="no"?>
<svg
   version="1.1"
   id="svg2"
   xml:space="preserve"
   width="1356.9467"
   height="1017.7599"
   viewBox="0 0 1356.9466 1017.76"
   sodipodi:docname="X220113_DMF_layout_2_v02_fromQCAD_merged-2.svg"
   inkscape:version="1.2.2 (b0a84865, 2022-12-01)"
   xmlns:inkscape="http://www.inkscape.org/namespaces/inkscape"
   xmlns:sodipodi="http://sodipodi.sourceforge.net/DTD/sodipodi-0.dtd"
   xmlns="http://www.w3.org/2000/svg"
   xmlns:svg="http://www.w3.org/2000/svg"
   xmlns:rdf="http://www.w3.org/1999/02/22-rdf-syntax-ns#"
   xmlns:cc="http://creativecommons.org/ns#"
   xmlns:dc="http://purl.org/dc/elements/1.1/"><sodipodi:namedview
     id="namedview30704"
     pagecolor="#ffffff"
     bordercolor="#666666"
     borderopacity="1.0"
     inkscape:showpageshadow="2"
     inkscape:pageopacity="0.0"
     inkscape:pagecheckerboard="0"
     inkscape:deskcolor="#d1d1d1"
     showgrid="false"
     inkscape:zoom="0.65199048"
     inkscape:cx="543.7196"
     inkscape:cy="496.17289"
     inkscape:window-width="1920"
     inkscape:window-height="965"
     inkscape:window-x="1440"
     inkscape:window-y="25"
     inkscape:window-maximized="1"
     inkscape:current-layer="svg2" /><metadata
     id="metadata8"><rdf:RDF><cc:Work
         rdf:about=""><dc:format>image/svg+xml</dc:format><dc:type
           rdf:resource="http://purl.org/dc/dcmitype/StillImage" /></cc:Work></rdf:RDF></metadata><defs
     id="defs6" /><g
     id="g10"
     transform="matrix(6.6666665,0,0,6.6666665,0.74000002,-4595.5866)"
     style="fill:#999999;stroke:#000000;stroke-width:0.3;stroke-dasharray:none"><g
       id="g12"
       style="fill:#999999;stroke:#000000;stroke-width:0.3;stroke-dasharray:none"><g
         id="g14"
         style="fill:#999999;stroke:#000000;stroke-width:0.3;stroke-dasharray:none"><path
           d="m 0.039,689.488 v 7.09 h 21.258 v 7.086 h 3.543 v -14.176 z"
           style="fill:#999999;stroke:#000000;stroke-width:0.3;stroke-linecap:butt;stroke-linejoin:miter;stroke-miterlimit:4;stroke-dasharray:none;stroke-opacity:1"
           id="path16" /></g><g
         id="g18"
         style="fill:#999999;stroke:#000000;stroke-width:0.3;stroke-dasharray:none"><path
           d="m 178.477,689.488 v 14.176 h 3.543 v -7.086 h 21.261 v -7.09 z"
           style="fill:#999999;stroke:#000000;stroke-width:0.3;stroke-linecap:butt;stroke-linejoin:miter;stroke-miterlimit:4;stroke-dasharray:none;stroke-opacity:1"
           id="path20" /></g><g
         id="g22"
         style="fill:#999999;stroke:#000000;stroke-width:0.3;stroke-dasharray:none"><path
           d="m 40.945,692.82 v 11.739 H 8.613 v 2.648 H 7.125 v 3.543 h 3.543 v -3.543 H 9.18 v -2.078 h 32.332 v -11.742 h 53.629 v 17.293 h -1.133 v 2.55 h 4.25 v 1.133 h 2.551 v -4.25 h 1.132 v -2.554 h -4.25 v -1.133 H 95.707 V 692.82 Z"
           style="fill:#999999;stroke:#000000;stroke-width:0.3;stroke-linecap:butt;stroke-linejoin:miter;stroke-miterlimit:4;stroke-dasharray:none;stroke-opacity:1"
           id="path24" /></g><g
         id="g26"
         style="fill:#999999;stroke:#000000;stroke-width:0.3;stroke-dasharray:none"><path
           d="m 102.512,692.82 v 17.86 h -1.137 v 2.55 h 4.254 v 1.133 h 2.551 v -4.25 h 1.133 v -2.554 h -4.25 v -1.133 h -1.985 v -13.039 h 58.727 v 11.742 h 32.336 v 2.078 h -1.489 v 3.543 h 3.543 v -3.543 h -1.488 v -2.648 H 162.375 V 692.82 Z"
           style="fill:#999999;stroke:#000000;stroke-width:0.3;stroke-linecap:butt;stroke-linejoin:miter;stroke-miterlimit:4;stroke-dasharray:none;stroke-opacity:1"
           id="path28" /></g><g
         id="g30"
         style="fill:#999999;stroke:#000000;stroke-width:0.3;stroke-dasharray:none"><path
           d="m 31.645,693.035 h 0.566 v 3.543 h -0.566 z"
           style="fill:#999999;stroke:#000000;stroke-width:0.3;stroke-linecap:butt;stroke-linejoin:miter;stroke-miterlimit:4;stroke-dasharray:none;stroke-opacity:1"
           id="path32" /></g><g
         id="g34"
         style="fill:#999999;stroke:#000000;stroke-width:0.3;stroke-dasharray:none"><path
           d="m 171.109,693.035 h 0.566 v 3.543 h -0.566 z"
           style="fill:#999999;stroke:#000000;stroke-width:0.3;stroke-linecap:butt;stroke-linejoin:miter;stroke-miterlimit:4;stroke-dasharray:none;stroke-opacity:1"
           id="path36" /></g><g
         id="g38"
         style="fill:#999999;stroke:#000000;stroke-width:0.3;stroke-dasharray:none"><path
           d="m 44.93,693.953 v 11.789 H 15.699 v 1.465 h -1.488 v 3.543 h 3.543 v -3.543 h -1.488 v -0.898 h 29.23 V 694.523 H 87.77 v 16.157 h -1.133 v 2.55 h 4.25 v 1.133 h 2.554 v -4.25 h 1.133 v -2.554 H 90.32 v -1.133 h -1.984 v -12.473 z"
           style="fill:#999999;stroke:#000000;stroke-width:0.3;stroke-linecap:butt;stroke-linejoin:miter;stroke-miterlimit:4;stroke-dasharray:none;stroke-opacity:1"
           id="path40" /></g><g
         id="g42"
         style="fill:#999999;stroke:#000000;stroke-width:0.3;stroke-dasharray:none"><path
           d="m 109.879,693.953 v 16.727 h -1.133 v 2.55 h 4.25 v 1.133 h 2.555 v -4.25 h 1.133 v -2.554 h -4.254 v -1.133 h -1.985 v -11.903 h 47.375 v 11.786 h 29.235 v 0.898 h -1.489 v 3.543 h 3.543 v -3.543 h -1.488 v -1.465 h -29.234 v -11.789 z"
           style="fill:#999999;stroke:#000000;stroke-width:0.3;stroke-linecap:butt;stroke-linejoin:miter;stroke-miterlimit:4;stroke-dasharray:none;stroke-opacity:1"
           id="path44" /></g><g
         id="g46"
         style="fill:#999999;stroke:#000000;stroke-width:0.3;stroke-dasharray:none"><path
           d="m 48.918,695.09 v 13.605 H 24.84 v -1.488 h -3.543 v 3.543 h 3.543 v -1.488 h 24.644 v -13.606 h 34.883 v 11.903 H 74.73 v 3.121 h -1.132 v 3.683 h 12.468 v -4.25 h 1.137 v -2.554 H 84.934 V 695.09 Z"
           style="fill:#999999;stroke:#000000;stroke-width:0.3;stroke-linecap:butt;stroke-linejoin:miter;stroke-miterlimit:4;stroke-dasharray:none;stroke-opacity:1"
           id="path48" /></g><g
         id="g50"
         style="fill:#999999;stroke:#000000;stroke-width:0.3;stroke-dasharray:none"><path
           d="m 117.25,695.09 v 15.59 h -1.133 v 2.55 h 12.473 v -3.117 h 1.133 v -3.687 h -11.907 v -10.77 h 36.02 v 13.606 h 24.641 v 1.488 h 3.543 v -3.543 h -3.543 v 1.488 H 154.402 V 695.09 Z"
           style="fill:#999999;stroke:#000000;stroke-width:0.3;stroke-linecap:butt;stroke-linejoin:miter;stroke-miterlimit:4;stroke-dasharray:none;stroke-opacity:1"
           id="path52" /></g><g
         id="g54"
         style="fill:#999999;stroke:#000000;stroke-width:0.3;stroke-dasharray:none"><path
           d="m 26.613,698.066 h 3.543 v 0.566 h -3.543 z"
           style="fill:#999999;stroke:#000000;stroke-width:0.3;stroke-linecap:butt;stroke-linejoin:miter;stroke-miterlimit:4;stroke-dasharray:none;stroke-opacity:1"
           id="path56" /></g><g
         id="g58"
         style="fill:#999999;stroke:#000000;stroke-width:0.3;stroke-dasharray:none"><path
           d="m 33.699,698.066 h 3.543 v 0.566 h -3.543 z"
           style="fill:#999999;stroke:#000000;stroke-width:0.3;stroke-linecap:butt;stroke-linejoin:miter;stroke-miterlimit:4;stroke-dasharray:none;stroke-opacity:1"
           id="path60" /></g><g
         id="g62"
         style="fill:#999999;stroke:#000000;stroke-width:0.3;stroke-dasharray:none"><path
           d="m 166.078,698.066 h 3.543 v 0.566 h -3.543 z"
           style="fill:#999999;stroke:#000000;stroke-width:0.3;stroke-linecap:butt;stroke-linejoin:miter;stroke-miterlimit:4;stroke-dasharray:none;stroke-opacity:1"
           id="path64" /></g><g
         id="g66"
         style="fill:#999999;stroke:#000000;stroke-width:0.3;stroke-dasharray:none"><path
           d="m 173.164,698.066 h 3.543 v 0.566 h -3.543 z"
           style="fill:#999999;stroke:#000000;stroke-width:0.3;stroke-linecap:butt;stroke-linejoin:miter;stroke-miterlimit:4;stroke-dasharray:none;stroke-opacity:1"
           id="path68" /></g><g
         id="g70"
         style="fill:#999999;stroke:#000000;stroke-width:0.3;stroke-dasharray:none"><path
           d="m 0.039,700.121 h 3.539 v 3.543 H 0.039 Z"
           style="fill:#999999;stroke:#000000;stroke-width:0.3;stroke-linecap:butt;stroke-linejoin:miter;stroke-miterlimit:4;stroke-dasharray:none;stroke-opacity:1"
           id="path72" /></g><g
         id="g74"
         style="fill:#999999;stroke:#000000;stroke-width:0.3;stroke-dasharray:none"><path
           d="m 7.125,700.121 v 3.543 h 3.543 v -1.488 h 3.543 v 1.488 h 3.543 v -3.543 h -3.543 v 1.488 h -3.543 v -1.488 z"
           style="fill:#999999;stroke:#000000;stroke-width:0.3;stroke-linecap:butt;stroke-linejoin:miter;stroke-miterlimit:4;stroke-dasharray:none;stroke-opacity:1"
           id="path76" /></g><g
         id="g78"
         style="fill:#999999;stroke:#000000;stroke-width:0.3;stroke-dasharray:none"><path
           d="m 31.645,700.121 h 0.566 v 3.543 h -0.566 z"
           style="fill:#999999;stroke:#000000;stroke-width:0.3;stroke-linecap:butt;stroke-linejoin:miter;stroke-miterlimit:4;stroke-dasharray:none;stroke-opacity:1"
           id="path80" /></g><g
         id="g82"
         style="fill:#999999;stroke:#000000;stroke-width:0.3;stroke-dasharray:none"><path
           d="m 171.109,700.121 h 0.566 v 3.543 h -0.566 z"
           style="fill:#999999;stroke:#000000;stroke-width:0.3;stroke-linecap:butt;stroke-linejoin:miter;stroke-miterlimit:4;stroke-dasharray:none;stroke-opacity:1"
           id="path84" /></g><g
         id="g86"
         style="fill:#999999;stroke:#000000;stroke-width:0.3;stroke-dasharray:none"><path
           d="m 185.566,700.121 v 3.543 h 3.543 v -1.488 h 3.543 v 1.488 h 3.543 v -3.543 h -3.543 v 1.488 h -3.543 v -1.488 z"
           style="fill:#999999;stroke:#000000;stroke-width:0.3;stroke-linecap:butt;stroke-linejoin:miter;stroke-miterlimit:4;stroke-dasharray:none;stroke-opacity:1"
           id="path88" /></g><g
         id="g90"
         style="fill:#999999;stroke:#000000;stroke-width:0.3;stroke-dasharray:none"><path
           d="m 199.738,700.121 h 3.543 v 3.543 h -3.543 z"
           style="fill:#999999;stroke:#000000;stroke-width:0.3;stroke-linecap:butt;stroke-linejoin:miter;stroke-miterlimit:4;stroke-dasharray:none;stroke-opacity:1"
           id="path92" /></g><g
         id="g94"
         style="fill:#999999;stroke:#000000;stroke-width:0.3;stroke-dasharray:none"><path
           d="m 121.785,700.191 v 5.668 h 8.504 v 4.821 h -1.133 v 3.117 h -7.371 v 5.668 h 28.348 v -3.117 h 28.344 v 1.488 h 3.543 v -3.543 h -3.543 v 1.488 h -28.344 v -15.59 z"
           style="fill:#999999;stroke:#000000;stroke-width:0.3;stroke-linecap:butt;stroke-linejoin:miter;stroke-miterlimit:4;stroke-dasharray:none;stroke-opacity:1"
           id="path96" /></g><g
         id="g98"
         style="fill:#999999;stroke:#000000;stroke-width:0.3;stroke-dasharray:none"><path
           d="m 53.188,701.324 v 14.457 H 24.84 v -1.488 h -3.543 v 3.543 h 3.543 v -1.488 h 28.348 v 4.254 h 28.347 v -5.672 h -8.504 v -4.817 h 1.133 v -3.121 h 7.371 v -5.668 z"
           style="fill:#999999;stroke:#000000;stroke-width:0.3;stroke-linecap:butt;stroke-linejoin:miter;stroke-miterlimit:4;stroke-dasharray:none;stroke-opacity:1"
           id="path100" /></g><g
         id="g102"
         style="fill:#999999;stroke:#000000;stroke-width:0.3;stroke-dasharray:none"><path
           d="m 95.141,713.797 v 4.25 h -1.133 v 1.988 H 82.809 v 3.328 H 36.18 v -4.039 H 16.266 v -1.488 h 1.488 v -3.543 h -3.543 v 3.543 h 1.488 v 2.055 h 19.914 v 4.039 h 47.762 v -3.328 h 14.883 v 1.132 h 2.551 v -4.254 h 1.132 v -2.55 h -4.25 v -1.133 z"
           style="fill:#999999;stroke:#000000;stroke-width:0.3;stroke-linecap:butt;stroke-linejoin:miter;stroke-miterlimit:4;stroke-dasharray:none;stroke-opacity:1"
           id="path104" /></g><g
         id="g106"
         style="fill:#999999;stroke:#000000;stroke-width:0.3;stroke-dasharray:none"><path
           d="m 102.512,713.797 v 4.25 h -1.137 v 2.555 h 4.254 v 1.132 h 2.551 v -4.254 h 12.047 v 5.317 h 47.48 v -2.906 h 19.914 v -2.055 h 1.488 v -3.543 h -3.543 v 3.543 h 1.489 v 1.488 h -19.914 v 2.906 h -46.348 v -5.316 h -11.48 v -1.984 h -4.25 v -1.133 z"
           style="fill:#999999;stroke:#000000;stroke-width:0.3;stroke-linecap:butt;stroke-linejoin:miter;stroke-miterlimit:4;stroke-dasharray:none;stroke-opacity:1"
           id="path108" /></g><g
         id="g110"
         style="fill:#999999;stroke:#000000;stroke-width:0.3;stroke-dasharray:none"><path
           d="m 95.141,721.168 v 4.25 H 84.367 v 0.992 H 35.043 v -3.543 H 24.84 v -1.488 h -3.543 v 3.543 h 3.543 v -1.488 h 9.637 v 3.543 h 50.457 v -0.989 h 9.074 v 1.981 h 4.25 v 1.136 h 2.551 v -4.253 h 1.132 v -2.551 h -4.25 v -1.133 z"
           style="fill:#999999;stroke:#000000;stroke-width:0.3;stroke-linecap:butt;stroke-linejoin:miter;stroke-miterlimit:4;stroke-dasharray:none;stroke-opacity:1"
           id="path112" /></g><g
         id="g114"
         style="fill:#999999;stroke:#000000;stroke-width:0.3;stroke-dasharray:none"><path
           d="m 102.512,721.168 v 4.25 h -1.137 v 2.551 h 4.254 v 1.136 h 2.551 v -4.253 h 10.769 v 0.992 h 49.891 v -2.41 h 9.637 v 1.488 h 3.543 v -3.543 h -3.543 v 1.488 h -10.204 v 2.41 H 119.52 v -0.992 h -10.207 v -1.984 h -4.25 v -1.133 z"
           style="fill:#999999;stroke:#000000;stroke-width:0.3;stroke-linecap:butt;stroke-linejoin:miter;stroke-miterlimit:4;stroke-dasharray:none;stroke-opacity:1"
           id="path116" /></g><g
         id="g118"
         style="fill:#999999;stroke:#000000;stroke-width:0.3;stroke-dasharray:none"><path
           d="m 14.211,721.379 v 3.543 h 1.488 v 2.055 h 17.645 v 3.046 h 53.152 v -2.476 h 5.383 v 1.558 h 3.262 v 3.684 h -1.133 v 2.551 h 4.25 v 1.133 h 2.551 v -4.25 h 1.132 v -2.551 h -4.25 v -1.137 h -5.246 v -1.558 h -6.519 v 2.48 H 33.91 V 726.41 H 16.266 v -1.488 h 1.488 v -3.543 z"
           style="fill:#999999;stroke:#000000;stroke-width:0.3;stroke-linecap:butt;stroke-linejoin:miter;stroke-miterlimit:4;stroke-dasharray:none;stroke-opacity:1"
           id="path120" /></g><g
         id="g122"
         style="fill:#999999;stroke:#000000;stroke-width:0.3;stroke-dasharray:none"><path
           d="m 185.566,721.379 v 3.543 h 1.489 v 1.488 h -17.649 v 1.914 h -51.164 v -1.914 h -9.496 v 3.262 h -3.683 v -1.137 h -2.551 v 4.254 h -1.137 v 2.551 h 4.254 v 1.133 h 2.551 v -4.25 h 1.133 v -5.246 h 8.363 v 1.914 h 52.297 v -1.914 h 17.648 v -2.055 h 1.488 v -3.543 z"
           style="fill:#999999;stroke:#000000;stroke-width:0.3;stroke-linecap:butt;stroke-linejoin:miter;stroke-miterlimit:4;stroke-dasharray:none;stroke-opacity:1"
           id="path124" /></g><g
         id="g126"
         style="fill:#999999;stroke:#000000;stroke-width:0.3;stroke-dasharray:none"><path
           d="m 14.211,728.465 v 3.547 h 1.488 v 2.054 h 15.379 v 6.661 h 55.559 v 1.984 h 4.25 v 1.133 h 2.554 v -4.25 h 1.133 v -2.555 H 90.32 v -1.133 h -2.55 v 4.254 H 31.645 V 733.5 H 16.266 v -1.488 h 1.488 v -3.547 z"
           style="fill:#999999;stroke:#000000;stroke-width:0.3;stroke-linecap:butt;stroke-linejoin:miter;stroke-miterlimit:4;stroke-dasharray:none;stroke-opacity:1"
           id="path128" /></g><g
         id="g130"
         style="fill:#999999;stroke:#000000;stroke-width:0.3;stroke-dasharray:none"><path
           d="m 21.297,728.465 v 3.547 h 3.543 v -1.489 h 7.371 v 2.832 h 54.426 v 1.985 h 4.25 v 1.133 h 2.554 v -4.25 h 1.133 v -2.551 H 90.32 v -1.137 h -2.55 v 4.254 H 32.777 v -2.836 H 24.84 v -1.488 z"
           style="fill:#999999;stroke:#000000;stroke-width:0.3;stroke-linecap:butt;stroke-linejoin:miter;stroke-miterlimit:4;stroke-dasharray:none;stroke-opacity:1"
           id="path132" /></g><g
         id="g134"
         style="fill:#999999;stroke:#000000;stroke-width:0.3;stroke-dasharray:none"><path
           d="m 178.477,728.465 v 1.488 h -7.934 v 1.703 h -53.859 v -1.984 h -4.254 v -1.137 h -2.551 v 4.254 h -1.133 v 2.551 h 4.25 v 1.133 h 2.555 v -4.25 h 55.558 v -1.7 h 7.368 v 1.489 h 3.543 v -3.547 z"
           style="fill:#999999;stroke:#000000;stroke-width:0.3;stroke-linecap:butt;stroke-linejoin:miter;stroke-miterlimit:4;stroke-dasharray:none;stroke-opacity:1"
           id="path136" /></g><g
         id="g138"
         style="fill:#999999;stroke:#000000;stroke-width:0.3;stroke-dasharray:none"><path
           d="m 185.566,728.465 v 3.547 h 1.489 v 1.488 h -15.379 v 5.523 h -54.992 v -1.984 h -4.254 v -1.133 h -2.551 v 4.254 h -1.133 v 2.551 h 4.25 v 1.133 h 2.555 v -4.25 h 56.691 v -5.528 h 15.379 v -2.054 h 1.488 v -3.547 z"
           style="fill:#999999;stroke:#000000;stroke-width:0.3;stroke-linecap:butt;stroke-linejoin:miter;stroke-miterlimit:4;stroke-dasharray:none;stroke-opacity:1"
           id="path140" /></g><g
         id="g142"
         style="fill:#999999;stroke:#000000;stroke-width:0.3;stroke-dasharray:none"><path
           d="m 14.211,735.555 v 3.539 h 1.488 v 2.058 h 13.11 v 6.942 h 65.199 v 1.988 h 4.25 v 1.133 h 2.551 v -4.254 h 1.132 v -2.551 h -4.25 v -1.133 h -2.55 v 4.25 H 29.375 v -6.945 H 16.266 v -1.488 h 1.488 v -3.539 z"
           style="fill:#999999;stroke:#000000;stroke-width:0.3;stroke-linecap:butt;stroke-linejoin:miter;stroke-miterlimit:4;stroke-dasharray:none;stroke-opacity:1"
           id="path144" /></g><g
         id="g146"
         style="fill:#999999;stroke:#000000;stroke-width:0.3;stroke-dasharray:none"><path
           d="m 21.297,735.555 v 3.539 h 3.543 v -1.485 h 5.101 v 8.36 h 64.633 v -3.258 h 3.684 v 1.133 h 2.551 v -4.25 h 1.132 v -2.555 h -4.25 v -1.133 h -2.55 v 4.254 h -1.133 v 5.242 h -63.5 v -8.363 H 24.84 v -1.484 z"
           style="fill:#999999;stroke:#000000;stroke-width:0.3;stroke-linecap:butt;stroke-linejoin:miter;stroke-miterlimit:4;stroke-dasharray:none;stroke-opacity:1"
           id="path148" /></g><g
         id="g150"
         style="fill:#999999;stroke:#000000;stroke-width:0.3;stroke-dasharray:none"><path
           d="m 178.477,735.555 v 1.484 h -5.668 v 7.797 h -61.368 v -1.559 h -3.261 v -3.683 h 1.133 v -2.555 h -4.25 v -1.133 h -2.551 v 4.254 h -1.137 v 2.551 h 4.254 v 1.133 h 5.242 v 1.558 h 62.504 v -7.793 h 5.102 v 1.485 h 3.543 v -3.539 z"
           style="fill:#999999;stroke:#000000;stroke-width:0.3;stroke-linecap:butt;stroke-linejoin:miter;stroke-miterlimit:4;stroke-dasharray:none;stroke-opacity:1"
           id="path152" /></g><g
         id="g154"
         style="fill:#999999;stroke:#000000;stroke-width:0.3;stroke-dasharray:none"><path
           d="m 185.566,735.555 v 3.539 h 1.489 v 1.488 h -13.114 v 5.813 h -64.628 v -1.985 h -4.25 v -1.133 h -2.551 v 4.25 h -1.137 v 2.555 h 4.254 v 1.133 h 2.551 v -4.254 h 66.328 v -5.809 h 13.113 v -2.058 h 1.488 v -3.539 z"
           style="fill:#999999;stroke:#000000;stroke-width:0.3;stroke-linecap:butt;stroke-linejoin:miter;stroke-miterlimit:4;stroke-dasharray:none;stroke-opacity:1"
           id="path156" /></g><g
         id="g158"
         style="fill:#999999;stroke:#000000;stroke-width:0.3;stroke-dasharray:none"><path
           d="m 14.211,742.641 v 3.543 h 1.488 v 2.054 h 10.844 v 7.231 h 60.094 v 1.98 h 4.25 v 1.133 h 2.554 v -4.25 h 1.133 v -2.551 H 90.32 v -1.133 h -2.55 v 4.25 H 27.109 v -7.226 H 16.266 v -1.488 h 1.488 v -3.543 z"
           style="fill:#999999;stroke:#000000;stroke-width:0.3;stroke-linecap:butt;stroke-linejoin:miter;stroke-miterlimit:4;stroke-dasharray:none;stroke-opacity:1"
           id="path160" /></g><g
         id="g162"
         style="fill:#999999;stroke:#000000;stroke-width:0.3;stroke-dasharray:none"><path
           d="m 21.297,742.641 v 3.543 h 3.543 v -1.489 h 2.836 v 4.961 h 64.203 v 1.559 h 3.262 v 3.683 h -1.133 v 2.551 h 4.25 v 1.133 h 2.551 v -4.25 h 1.132 v -2.551 h -4.25 v -1.133 H 92.445 V 749.09 H 28.242 v -4.961 H 24.84 v -1.488 z"
           style="fill:#999999;stroke:#000000;stroke-width:0.3;stroke-linecap:butt;stroke-linejoin:miter;stroke-miterlimit:4;stroke-dasharray:none;stroke-opacity:1"
           id="path164" /></g><g
         id="g166"
         style="fill:#999999;stroke:#000000;stroke-width:0.3;stroke-dasharray:none"><path
           d="m 178.477,742.641 v 1.488 h -3.399 v 3.824 h -66.332 v 3.828 h -3.683 v -1.133 h -2.551 v 4.25 h -1.137 v 2.551 h 4.254 v 1.133 h 2.551 v -4.25 h 1.133 v -5.809 h 66.332 v -3.828 h 2.832 v 1.489 h 3.543 v -3.543 z"
           style="fill:#999999;stroke:#000000;stroke-width:0.3;stroke-linecap:butt;stroke-linejoin:miter;stroke-miterlimit:4;stroke-dasharray:none;stroke-opacity:1"
           id="path168" /></g><g
         id="g170"
         style="fill:#999999;stroke:#000000;stroke-width:0.3;stroke-dasharray:none"><path
           d="m 185.566,742.641 v 3.543 h 1.489 v 1.488 h -10.844 v 6.094 h -59.527 v -1.985 h -4.254 v -1.133 h -2.551 v 4.25 h -1.133 v 2.551 h 4.25 v 1.133 h 2.555 v -4.25 h 61.226 v -6.094 h 10.844 v -2.054 h 1.488 v -3.543 z"
           style="fill:#999999;stroke:#000000;stroke-width:0.3;stroke-linecap:butt;stroke-linejoin:miter;stroke-miterlimit:4;stroke-dasharray:none;stroke-opacity:1"
           id="path172" /></g><g
         id="g174"
         style="fill:#999999;stroke:#000000;stroke-width:0.3;stroke-dasharray:none"><path
           d="m 21.297,749.727 v 3.543 h 3.543 v -1.489 h 0.566 v 11.055 h 61.231 v 1.984 h 4.25 v 1.133 h 2.554 v -4.25 h 1.133 v -2.551 H 90.32 v -1.136 h -2.55 v 4.254 H 25.973 V 751.215 H 24.84 v -1.488 z"
           style="fill:#999999;stroke:#000000;stroke-width:0.3;stroke-linecap:butt;stroke-linejoin:miter;stroke-miterlimit:4;stroke-dasharray:none;stroke-opacity:1"
           id="path176" /></g><g
         id="g178"
         style="fill:#999999;stroke:#000000;stroke-width:0.3;stroke-dasharray:none"><path
           d="m 24.84,765.672 h 1.492 v 0.566 H 24.84 Z"
           style="fill:#999999;stroke:#000000;stroke-width:0.3;stroke-linecap:butt;stroke-linejoin:miter;stroke-miterlimit:4;stroke-dasharray:none;stroke-opacity:1"
           id="path180" /></g><g
         id="g182"
         style="fill:#999999;stroke:#000000;stroke-width:0.3;stroke-dasharray:none"><path
           d="m 27.824,765.672 h 1.492 v 0.566 h -1.492 z"
           style="fill:#999999;stroke:#000000;stroke-width:0.3;stroke-linecap:butt;stroke-linejoin:miter;stroke-miterlimit:4;stroke-dasharray:none;stroke-opacity:1"
           id="path184" /></g><g
         id="g186"
         style="fill:#999999;stroke:#000000;stroke-width:0.3;stroke-dasharray:none"><path
           d="m 30.809,765.672 h 1.492 v 0.566 h -1.492 z"
           style="fill:#999999;stroke:#000000;stroke-width:0.3;stroke-linecap:butt;stroke-linejoin:miter;stroke-miterlimit:4;stroke-dasharray:none;stroke-opacity:1"
           id="path188" /></g><g
         id="g190"
         style="fill:#999999;stroke:#000000;stroke-width:0.3;stroke-dasharray:none"><path
           d="m 33.793,765.672 h 1.492 v 0.566 h -1.492 z"
           style="fill:#999999;stroke:#000000;stroke-width:0.3;stroke-linecap:butt;stroke-linejoin:miter;stroke-miterlimit:4;stroke-dasharray:none;stroke-opacity:1"
           id="path192" /></g><g
         id="g194"
         style="fill:#999999;stroke:#000000;stroke-width:0.3;stroke-dasharray:none"><path
           d="m 36.777,765.672 h 1.488 v 0.566 h -1.488 z"
           style="fill:#999999;stroke:#000000;stroke-width:0.3;stroke-linecap:butt;stroke-linejoin:miter;stroke-miterlimit:4;stroke-dasharray:none;stroke-opacity:1"
           id="path196" /></g><g
         id="g198"
         style="fill:#999999;stroke:#000000;stroke-width:0.3;stroke-dasharray:none"><path
           d="m 39.762,765.672 h 1.488 v 0.566 h -1.488 z"
           style="fill:#999999;stroke:#000000;stroke-width:0.3;stroke-linecap:butt;stroke-linejoin:miter;stroke-miterlimit:4;stroke-dasharray:none;stroke-opacity:1"
           id="path200" /></g><g
         id="g202"
         style="fill:#999999;stroke:#000000;stroke-width:0.3;stroke-dasharray:none"><path
           d="m 42.742,765.672 h 1.492 v 0.566 h -1.492 z"
           style="fill:#999999;stroke:#000000;stroke-width:0.3;stroke-linecap:butt;stroke-linejoin:miter;stroke-miterlimit:4;stroke-dasharray:none;stroke-opacity:1"
           id="path204" /></g><g
         id="g206"
         style="fill:#999999;stroke:#000000;stroke-width:0.3;stroke-dasharray:none"><path
           d="m 45.727,765.672 h 1.492 v 0.566 h -1.492 z"
           style="fill:#999999;stroke:#000000;stroke-width:0.3;stroke-linecap:butt;stroke-linejoin:miter;stroke-miterlimit:4;stroke-dasharray:none;stroke-opacity:1"
           id="path208" /></g><g
         id="g210"
         style="fill:#999999;stroke:#000000;stroke-width:0.3;stroke-dasharray:none"><path
           d="m 48.711,765.672 h 1.492 v 0.566 h -1.492 z"
           style="fill:#999999;stroke:#000000;stroke-width:0.3;stroke-linecap:butt;stroke-linejoin:miter;stroke-miterlimit:4;stroke-dasharray:none;stroke-opacity:1"
           id="path212" /></g><g
         id="g214"
         style="fill:#999999;stroke:#000000;stroke-width:0.3;stroke-dasharray:none"><path
           d="m 51.695,765.672 h 1.492 v 0.566 h -1.492 z"
           style="fill:#999999;stroke:#000000;stroke-width:0.3;stroke-linecap:butt;stroke-linejoin:miter;stroke-miterlimit:4;stroke-dasharray:none;stroke-opacity:1"
           id="path216" /></g><g
         id="g218"
         style="fill:#999999;stroke:#000000;stroke-width:0.3;stroke-dasharray:none"><path
           d="m 150.133,765.672 h 1.492 v 0.566 h -1.492 z"
           style="fill:#999999;stroke:#000000;stroke-width:0.3;stroke-linecap:butt;stroke-linejoin:miter;stroke-miterlimit:4;stroke-dasharray:none;stroke-opacity:1"
           id="path220" /></g><g
         id="g222"
         style="fill:#999999;stroke:#000000;stroke-width:0.3;stroke-dasharray:none"><path
           d="m 153.117,765.672 h 1.492 v 0.566 h -1.492 z"
           style="fill:#999999;stroke:#000000;stroke-width:0.3;stroke-linecap:butt;stroke-linejoin:miter;stroke-miterlimit:4;stroke-dasharray:none;stroke-opacity:1"
           id="path224" /></g><g
         id="g226"
         style="fill:#999999;stroke:#000000;stroke-width:0.3;stroke-dasharray:none"><path
           d="m 156.098,765.672 h 1.496 v 0.566 h -1.496 z"
           style="fill:#999999;stroke:#000000;stroke-width:0.3;stroke-linecap:butt;stroke-linejoin:miter;stroke-miterlimit:4;stroke-dasharray:none;stroke-opacity:1"
           id="path228" /></g><g
         id="g230"
         style="fill:#999999;stroke:#000000;stroke-width:0.3;stroke-dasharray:none"><path
           d="m 159.082,765.672 h 1.492 v 0.566 h -1.492 z"
           style="fill:#999999;stroke:#000000;stroke-width:0.3;stroke-linecap:butt;stroke-linejoin:miter;stroke-miterlimit:4;stroke-dasharray:none;stroke-opacity:1"
           id="path232" /></g><g
         id="g234"
         style="fill:#999999;stroke:#000000;stroke-width:0.3;stroke-dasharray:none"><path
           d="m 162.066,765.672 h 1.492 v 0.566 h -1.492 z"
           style="fill:#999999;stroke:#000000;stroke-width:0.3;stroke-linecap:butt;stroke-linejoin:miter;stroke-miterlimit:4;stroke-dasharray:none;stroke-opacity:1"
           id="path236" /></g><g
         id="g238"
         style="fill:#999999;stroke:#000000;stroke-width:0.3;stroke-dasharray:none"><path
           d="m 165.051,765.672 h 1.492 v 0.566 h -1.492 z"
           style="fill:#999999;stroke:#000000;stroke-width:0.3;stroke-linecap:butt;stroke-linejoin:miter;stroke-miterlimit:4;stroke-dasharray:none;stroke-opacity:1"
           id="path240" /></g><g
         id="g242"
         style="fill:#999999;stroke:#000000;stroke-width:0.3;stroke-dasharray:none"><path
           d="m 168.035,765.672 h 1.492 v 0.566 h -1.492 z"
           style="fill:#999999;stroke:#000000;stroke-width:0.3;stroke-linecap:butt;stroke-linejoin:miter;stroke-miterlimit:4;stroke-dasharray:none;stroke-opacity:1"
           id="path244" /></g><g
         id="g246"
         style="fill:#999999;stroke:#000000;stroke-width:0.3;stroke-dasharray:none"><path
           d="m 171.02,765.672 h 1.492 v 0.566 h -1.492 z"
           style="fill:#999999;stroke:#000000;stroke-width:0.3;stroke-linecap:butt;stroke-linejoin:miter;stroke-miterlimit:4;stroke-dasharray:none;stroke-opacity:1"
           id="path248" /></g><g
         id="g250"
         style="fill:#999999;stroke:#000000;stroke-width:0.3;stroke-dasharray:none"><path
           d="m 174.004,765.672 h 1.488 v 0.566 h -1.488 z"
           style="fill:#999999;stroke:#000000;stroke-width:0.3;stroke-linecap:butt;stroke-linejoin:miter;stroke-miterlimit:4;stroke-dasharray:none;stroke-opacity:1"
           id="path252" /></g><g
         id="g254"
         style="fill:#999999;stroke:#000000;stroke-width:0.3;stroke-dasharray:none"><path
           d="m 176.988,765.672 h 1.488 v 0.566 h -1.488 z"
           style="fill:#999999;stroke:#000000;stroke-width:0.3;stroke-linecap:butt;stroke-linejoin:miter;stroke-miterlimit:4;stroke-dasharray:none;stroke-opacity:1"
           id="path256" /></g><g
         id="g258"
         style="fill:#999999;stroke:#000000;stroke-width:0.3;stroke-dasharray:none"><path
           d="m 47.59,767.938 v 70.371 h -1.488 v 3.543 h 3.543 v -3.543 h -1.489 v -69.805 h 42.731 v -0.566 z"
           style="fill:#999999;stroke:#000000;stroke-width:0.3;stroke-linecap:butt;stroke-linejoin:miter;stroke-miterlimit:4;stroke-dasharray:none;stroke-opacity:1"
           id="path260" /></g><g
         id="g262"
         style="fill:#999999;stroke:#000000;stroke-width:0.3;stroke-dasharray:none"><path
           d="m 58.219,781.262 v 51.093 h 10.629 v 5.954 h -1.489 v 3.543 h 3.543 v -3.543 h -1.488 v -6.52 H 58.785 v -49.961 h 24.449 v -0.566 z"
           style="fill:#999999;stroke:#000000;stroke-width:0.3;stroke-linecap:butt;stroke-linejoin:miter;stroke-miterlimit:4;stroke-dasharray:none;stroke-opacity:1"
           id="path264" /></g><g
         id="g266"
         style="fill:#999999;stroke:#000000;stroke-width:0.3;stroke-dasharray:none"><path
           d="m 60.273,791.113 h 0.566 v 14.738 h -0.566 z"
           style="fill:#999999;stroke:#000000;stroke-width:0.3;stroke-linecap:butt;stroke-linejoin:miter;stroke-miterlimit:4;stroke-dasharray:none;stroke-opacity:1"
           id="path268" /></g><g
         id="g270"
         style="fill:#999999;stroke:#000000;stroke-width:0.3;stroke-dasharray:none"><path
           d="m 157.219,791.113 h 0.566 v 14.738 h -0.566 z"
           style="fill:#999999;stroke:#000000;stroke-width:0.3;stroke-linecap:butt;stroke-linejoin:miter;stroke-miterlimit:4;stroke-dasharray:none;stroke-opacity:1"
           id="path272" /></g><g
         id="g274"
         style="fill:#999999;stroke:#000000;stroke-width:0.3;stroke-dasharray:none"><path
           d="m 90.109,794.656 v 43.653 h -1.488 v 3.543 h 3.543 v -3.543 h -1.488 v -43.653 z"
           style="fill:#999999;stroke:#000000;stroke-width:0.3;stroke-linecap:butt;stroke-linejoin:miter;stroke-miterlimit:4;stroke-dasharray:none;stroke-opacity:1"
           id="path276" /></g><g
         id="g278"
         style="fill:#999999;stroke:#000000;stroke-width:0.3;stroke-dasharray:none"><path
           d="m 145.879,810.176 v 0.566 h 15.094 v 21.613 h -49.606 v 5.954 h -1.488 v 3.543 h 3.543 v -3.543 h -1.488 v -5.387 h 49.609 v -22.746 z"
           style="fill:#999999;stroke:#000000;stroke-width:0.3;stroke-linecap:butt;stroke-linejoin:miter;stroke-miterlimit:4;stroke-dasharray:none;stroke-opacity:1"
           id="path280" /></g><g
         id="g282"
         style="fill:#999999;stroke:#000000;stroke-width:0.3;stroke-dasharray:none"><path
           d="m 60.273,820.594 v 7.086 h 7.086 v -0.567 H 60.84 v -6.519 z"
           style="fill:#999999;stroke:#000000;stroke-width:0.3;stroke-linecap:butt;stroke-linejoin:miter;stroke-miterlimit:4;stroke-dasharray:none;stroke-opacity:1"
           id="path284" /></g><g
         id="g286"
         style="fill:#999999;stroke:#000000;stroke-width:0.3;stroke-dasharray:none"><path
           d="m 157.219,820.594 v 6.519 h -6.52 v 0.567 h 7.086 v -7.086 z"
           style="fill:#999999;stroke:#000000;stroke-width:0.3;stroke-linecap:butt;stroke-linejoin:miter;stroke-miterlimit:4;stroke-dasharray:none;stroke-opacity:1"
           id="path288" /></g><g
         id="g290"
         style="fill:#999999;stroke:#000000;stroke-width:0.3;stroke-dasharray:none"><path
           d="m 0.039,827.68 h 3.539 v 3.543 H 0.039 Z"
           style="fill:#999999;stroke:#000000;stroke-width:0.3;stroke-linecap:butt;stroke-linejoin:miter;stroke-miterlimit:4;stroke-dasharray:none;stroke-opacity:1"
           id="path292" /></g><g
         id="g294"
         style="fill:#999999;stroke:#000000;stroke-width:0.3;stroke-dasharray:none"><path
           d="m 7.125,827.68 v 3.543 h 3.543 v -1.489 h 3.543 v 1.489 h 3.543 v -3.543 h -3.543 v 1.488 h -3.543 v -1.488 z"
           style="fill:#999999;stroke:#000000;stroke-width:0.3;stroke-linecap:butt;stroke-linejoin:miter;stroke-miterlimit:4;stroke-dasharray:none;stroke-opacity:1"
           id="path296" /></g><g
         id="g298"
         style="fill:#999999;stroke:#000000;stroke-width:0.3;stroke-dasharray:none"><path
           d="m 21.297,827.68 h 3.543 v 3.543 h -3.543 z"
           style="fill:#999999;stroke:#000000;stroke-width:0.3;stroke-linecap:butt;stroke-linejoin:miter;stroke-miterlimit:4;stroke-dasharray:none;stroke-opacity:1"
           id="path300" /></g><g
         id="g302"
         style="fill:#999999;stroke:#000000;stroke-width:0.3;stroke-dasharray:none"><path
           d="m 31.645,827.68 h 0.566 v 3.543 h -0.566 z"
           style="fill:#999999;stroke:#000000;stroke-width:0.3;stroke-linecap:butt;stroke-linejoin:miter;stroke-miterlimit:4;stroke-dasharray:none;stroke-opacity:1"
           id="path304" /></g><g
         id="g306"
         style="fill:#999999;stroke:#000000;stroke-width:0.3;stroke-dasharray:none"><path
           d="m 171.109,827.68 h 0.566 v 3.543 h -0.566 z"
           style="fill:#999999;stroke:#000000;stroke-width:0.3;stroke-linecap:butt;stroke-linejoin:miter;stroke-miterlimit:4;stroke-dasharray:none;stroke-opacity:1"
           id="path308" /></g><g
         id="g310"
         style="fill:#999999;stroke:#000000;stroke-width:0.3;stroke-dasharray:none"><path
           d="m 178.477,827.68 h 3.543 v 3.543 h -3.543 z"
           style="fill:#999999;stroke:#000000;stroke-width:0.3;stroke-linecap:butt;stroke-linejoin:miter;stroke-miterlimit:4;stroke-dasharray:none;stroke-opacity:1"
           id="path312" /></g><g
         id="g314"
         style="fill:#999999;stroke:#000000;stroke-width:0.3;stroke-dasharray:none"><path
           d="m 185.566,827.68 v 3.543 h 3.543 v -1.489 h 3.543 v 1.489 h 3.543 v -3.543 h -3.543 v 1.488 h -3.543 v -1.488 z"
           style="fill:#999999;stroke:#000000;stroke-width:0.3;stroke-linecap:butt;stroke-linejoin:miter;stroke-miterlimit:4;stroke-dasharray:none;stroke-opacity:1"
           id="path316" /></g><g
         id="g318"
         style="fill:#999999;stroke:#000000;stroke-width:0.3;stroke-dasharray:none"><path
           d="m 199.738,827.68 h 3.543 v 3.543 h -3.543 z"
           style="fill:#999999;stroke:#000000;stroke-width:0.3;stroke-linecap:butt;stroke-linejoin:miter;stroke-miterlimit:4;stroke-dasharray:none;stroke-opacity:1"
           id="path320" /></g><g
         id="g322"
         style="fill:#999999;stroke:#000000;stroke-width:0.3;stroke-dasharray:none"><path
           d="m 26.613,832.711 h 3.543 v 0.566 h -3.543 z"
           style="fill:#999999;stroke:#000000;stroke-width:0.3;stroke-linecap:butt;stroke-linejoin:miter;stroke-miterlimit:4;stroke-dasharray:none;stroke-opacity:1"
           id="path324" /></g><g
         id="g326"
         style="fill:#999999;stroke:#000000;stroke-width:0.3;stroke-dasharray:none"><path
           d="m 33.699,832.711 h 3.543 v 0.566 h -3.543 z"
           style="fill:#999999;stroke:#000000;stroke-width:0.3;stroke-linecap:butt;stroke-linejoin:miter;stroke-miterlimit:4;stroke-dasharray:none;stroke-opacity:1"
           id="path328" /></g><g
         id="g330"
         style="fill:#999999;stroke:#000000;stroke-width:0.3;stroke-dasharray:none"><path
           d="m 166.078,832.711 h 3.543 v 0.566 h -3.543 z"
           style="fill:#999999;stroke:#000000;stroke-width:0.3;stroke-linecap:butt;stroke-linejoin:miter;stroke-miterlimit:4;stroke-dasharray:none;stroke-opacity:1"
           id="path332" /></g><g
         id="g334"
         style="fill:#999999;stroke:#000000;stroke-width:0.3;stroke-dasharray:none"><path
           d="m 173.164,832.711 h 3.543 v 0.566 h -3.543 z"
           style="fill:#999999;stroke:#000000;stroke-width:0.3;stroke-linecap:butt;stroke-linejoin:miter;stroke-miterlimit:4;stroke-dasharray:none;stroke-opacity:1"
           id="path336" /></g><g
         id="g338"
         style="fill:#999999;stroke:#000000;stroke-width:0.3;stroke-dasharray:none"><path
           d="m 31.645,834.766 h 0.566 v 3.543 h -0.566 z"
           style="fill:#999999;stroke:#000000;stroke-width:0.3;stroke-linecap:butt;stroke-linejoin:miter;stroke-miterlimit:4;stroke-dasharray:none;stroke-opacity:1"
           id="path340" /></g><g
         id="g342"
         style="fill:#999999;stroke:#000000;stroke-width:0.3;stroke-dasharray:none"><path
           d="m 171.109,834.766 h 0.566 v 3.543 h -0.566 z"
           style="fill:#999999;stroke:#000000;stroke-width:0.3;stroke-linecap:butt;stroke-linejoin:miter;stroke-miterlimit:4;stroke-dasharray:none;stroke-opacity:1"
           id="path344" /></g></g></g></svg>
