<?xml version="1.0" encoding="UTF-8" standalone="no"?>
<svg
   xmlns:dc="http://purl.org/dc/elements/1.1/"
   xmlns:cc="http://creativecommons.org/ns#"
   xmlns:rdf="http://www.w3.org/1999/02/22-rdf-syntax-ns#"
   xmlns:svg="http://www.w3.org/2000/svg"
   xmlns="http://www.w3.org/2000/svg"
   version="1.1"
   id="svg2"
   xml:space="preserve"
   width="104.33333"
   height="80.58667"
   viewBox="0 0 104.33333 80.58667"><metadata
     id="metadata8"><rdf:RDF><cc:Work
         rdf:about=""><dc:format>image/svg+xml</dc:format><dc:type
           rdf:resource="http://purl.org/dc/dcmitype/StillImage" /></cc:Work></rdf:RDF></metadata><defs
     id="defs6" /><g
     id="g10"
     transform="matrix(1.3333333,0,0,-1.3333333,0,80.586667)"><path
       d="m 66.01,5.05 h 1.24 v 3.47 h -1.24 z"
       style="fill:#eae9e9;fill-opacity:1;fill-rule:nonzero;stroke:none"
       id="path12" /><path
       d="m 66.01,5.05 h 1.24 v 3.47 h -1.24 z"
       style="fill:none;stroke:#231f20;stroke-width:0.1;stroke-linecap:butt;stroke-linejoin:miter;stroke-miterlimit:10;stroke-dasharray:none;stroke-opacity:1"
       id="path14" /><path
       d="m 17.87,4.72 h 0.19845 V 8.91 H 17.87 Z"
       style="fill:#eae9e9;fill-opacity:1;fill-rule:nonzero;stroke:none"
       id="path16" /><path
       d="m 17.87,4.72 h 0.19845 V 8.91 H 17.87 Z"
       style="fill:none;stroke:#231f20;stroke-width:0.1;stroke-linecap:butt;stroke-linejoin:miter;stroke-miterlimit:10;stroke-dasharray:none;stroke-opacity:1"
       id="path18" /><path
       d="m 6.56,8.95 h 0.19845 v 1.3 H 6.56 Z"
       style="fill:#eae9e9;fill-opacity:1;fill-rule:nonzero;stroke:none"
       id="path20" /><path
       d="m 6.56,8.95 h 0.19845 v 1.3 H 6.56 Z"
       style="fill:none;stroke:#231f20;stroke-width:0.1;stroke-linecap:butt;stroke-linejoin:miter;stroke-miterlimit:10;stroke-dasharray:none;stroke-opacity:1"
       id="path22" /><path
       d="m 37.93,11.07 h 0.89285 v 1.19 H 37.93 Z"
       style="fill:#eae9e9;fill-opacity:1;fill-rule:nonzero;stroke:none"
       id="path24" /><path
       d="m 37.93,11.07 h 0.89285 v 1.19 H 37.93 Z"
       style="fill:none;stroke:#231f20;stroke-width:0.1;stroke-linecap:butt;stroke-linejoin:miter;stroke-miterlimit:10;stroke-dasharray:none;stroke-opacity:1"
       id="path26" /><path
       d="m 36.84,4.84 h 0.1981 v 4.8 H 36.84 Z"
       style="fill:#eae9e9;fill-opacity:1;fill-rule:nonzero;stroke:none"
       id="path28" /><path
       d="m 36.84,4.84 h 0.1981 v 4.8 H 36.84 Z"
       style="fill:none;stroke:#231f20;stroke-width:0.1;stroke-linecap:butt;stroke-linejoin:miter;stroke-miterlimit:10;stroke-dasharray:none;stroke-opacity:1"
       id="path30" /><path
       d="m 60.17,4.72 h 0.1995 V 8.91 H 60.17 Z"
       style="fill:#eae9e9;fill-opacity:1;fill-rule:nonzero;stroke:none"
       id="path32" /><path
       d="m 60.17,4.72 h 0.1995 V 8.91 H 60.17 Z"
       style="fill:none;stroke:#231f20;stroke-width:0.1;stroke-linecap:butt;stroke-linejoin:miter;stroke-miterlimit:10;stroke-dasharray:none;stroke-opacity:1"
       id="path34" /><path
       d="m 71.49,8.95 h 0.1981 v 1.3 H 71.49 Z"
       style="fill:#eae9e9;fill-opacity:1;fill-rule:nonzero;stroke:none"
       id="path36" /><path
       d="m 71.49,8.95 h 0.1981 v 1.3 H 71.49 Z"
       style="fill:none;stroke:#231f20;stroke-width:0.1;stroke-linecap:butt;stroke-linejoin:miter;stroke-miterlimit:10;stroke-dasharray:none;stroke-opacity:1"
       id="path38" /><path
       d="m 40.51,11.07 h 0.89285 v 1.19 H 40.51 Z"
       style="fill:#eae9e9;fill-opacity:1;fill-rule:nonzero;stroke:none"
       id="path40" /><path
       d="m 40.51,11.07 h 0.89285 v 1.19 H 40.51 Z"
       style="fill:none;stroke:#231f20;stroke-width:0.1;stroke-linecap:butt;stroke-linejoin:miter;stroke-miterlimit:10;stroke-dasharray:none;stroke-opacity:1"
       id="path42" /><path
       d="m 39.42,4.84 h 0.1981 v 4.8 H 39.42 Z"
       style="fill:#eae9e9;fill-opacity:1;fill-rule:nonzero;stroke:none"
       id="path44" /><path
       d="m 39.42,4.84 h 0.1981 v 4.8 H 39.42 Z"
       style="fill:none;stroke:#231f20;stroke-width:0.1;stroke-linecap:butt;stroke-linejoin:miter;stroke-miterlimit:10;stroke-dasharray:none;stroke-opacity:1"
       id="path46" /><path
       d="m 14.62,4.8 h 0.1981 V 6.04 H 14.62 Z"
       style="fill:#eae9e9;fill-opacity:1;fill-rule:nonzero;stroke:none"
       id="path48" /><path
       d="m 14.62,4.8 h 0.1981 V 6.04 H 14.62 Z"
       style="fill:none;stroke:#231f20;stroke-width:0.1;stroke-linecap:butt;stroke-linejoin:miter;stroke-miterlimit:10;stroke-dasharray:none;stroke-opacity:1"
       id="path50" /><path
       d="m 63.43,4.8 h 0.1981 V 6.04 H 63.43 Z"
       style="fill:#eae9e9;fill-opacity:1;fill-rule:nonzero;stroke:none"
       id="path52" /><path
       d="m 63.43,4.8 h 0.1981 V 6.04 H 63.43 Z"
       style="fill:none;stroke:#231f20;stroke-width:0.1;stroke-linecap:butt;stroke-linejoin:miter;stroke-miterlimit:10;stroke-dasharray:none;stroke-opacity:1"
       id="path54" /><path
       d="m 19.27,5.24 h 0.1981 V 9.33 H 19.27 Z"
       style="fill:#eae9e9;fill-opacity:1;fill-rule:nonzero;stroke:none"
       id="path56" /><path
       d="m 19.27,5.24 h 0.1981 V 9.33 H 19.27 Z"
       style="fill:none;stroke:#231f20;stroke-width:0.1;stroke-linecap:butt;stroke-linejoin:miter;stroke-miterlimit:10;stroke-dasharray:none;stroke-opacity:1"
       id="path58" /><path
       d="m 9.04,9.36 h 0.19845 v 0.8897 H 9.04 Z"
       style="fill:#eae9e9;fill-opacity:1;fill-rule:nonzero;stroke:none"
       id="path60" /><path
       d="m 9.04,9.36 h 0.19845 v 0.8897 H 9.04 Z"
       style="fill:none;stroke:#231f20;stroke-width:0.1;stroke-linecap:butt;stroke-linejoin:miter;stroke-miterlimit:10;stroke-dasharray:none;stroke-opacity:1"
       id="path62" /><path
       d="m 35.35,11.07 h 0.8939 v 1.19 H 35.35 Z"
       style="fill:#eae9e9;fill-opacity:1;fill-rule:nonzero;stroke:none"
       id="path64" /><path
       d="m 35.35,11.07 h 0.8939 v 1.19 H 35.35 Z"
       style="fill:none;stroke:#231f20;stroke-width:0.1;stroke-linecap:butt;stroke-linejoin:miter;stroke-miterlimit:10;stroke-dasharray:none;stroke-opacity:1"
       id="path66" /><path
       d="m 34.26,5.24 h 0.1981 V 9.96 H 34.26 Z"
       style="fill:#eae9e9;fill-opacity:1;fill-rule:nonzero;stroke:none"
       id="path68" /><path
       d="m 34.26,5.24 h 0.1981 V 9.96 H 34.26 Z"
       style="fill:none;stroke:#231f20;stroke-width:0.1;stroke-linecap:butt;stroke-linejoin:miter;stroke-miterlimit:10;stroke-dasharray:none;stroke-opacity:1"
       id="path70" /><path
       d="m 58.78,5.24 h 0.19845 V 9.33 H 58.78 Z"
       style="fill:#eae9e9;fill-opacity:1;fill-rule:nonzero;stroke:none"
       id="path72" /><path
       d="m 58.78,5.24 h 0.19845 V 9.33 H 58.78 Z"
       style="fill:none;stroke:#231f20;stroke-width:0.1;stroke-linecap:butt;stroke-linejoin:miter;stroke-miterlimit:10;stroke-dasharray:none;stroke-opacity:1"
       id="path74" /><path
       d="m 69.01,9.36 h 0.1981 v 0.8897 H 69.01 Z"
       style="fill:#eae9e9;fill-opacity:1;fill-rule:nonzero;stroke:none"
       id="path76" /><path
       d="m 69.01,9.36 h 0.1981 v 0.8897 H 69.01 Z"
       style="fill:none;stroke:#231f20;stroke-width:0.1;stroke-linecap:butt;stroke-linejoin:miter;stroke-miterlimit:10;stroke-dasharray:none;stroke-opacity:1"
       id="path78" /><path
       d="m 43.09,11.07 h 0.89425 v 1.19 H 43.09 Z"
       style="fill:#eae9e9;fill-opacity:1;fill-rule:nonzero;stroke:none"
       id="path80" /><path
       d="m 43.09,11.07 h 0.89425 v 1.19 H 43.09 Z"
       style="fill:none;stroke:#231f20;stroke-width:0.1;stroke-linecap:butt;stroke-linejoin:miter;stroke-miterlimit:10;stroke-dasharray:none;stroke-opacity:1"
       id="path82" /><path
       d="m 42,5.24 h 0.1981 V 9.96 H 42 Z"
       style="fill:#eae9e9;fill-opacity:1;fill-rule:nonzero;stroke:none"
       id="path84" /><path
       d="m 42,5.24 h 0.1981 V 9.96 H 42 Z"
       style="fill:none;stroke:#231f20;stroke-width:0.1;stroke-linecap:butt;stroke-linejoin:miter;stroke-miterlimit:10;stroke-dasharray:none;stroke-opacity:1"
       id="path86" /><path
       d="m 20.66,5.52 h 0.1981 v 4.84 H 20.66 Z"
       style="fill:#eae9e9;fill-opacity:1;fill-rule:nonzero;stroke:none"
       id="path88" /><path
       d="m 20.66,5.52 h 0.1981 v 4.84 H 20.66 Z"
       style="fill:none;stroke:#231f20;stroke-width:0.1;stroke-linecap:butt;stroke-linejoin:miter;stroke-miterlimit:10;stroke-dasharray:none;stroke-opacity:1"
       id="path90" /><path
       d="m 33.07,5.52 h 0.19845 v 5.32 H 33.07 Z"
       style="fill:#eae9e9;fill-opacity:1;fill-rule:nonzero;stroke:none"
       id="path92" /><path
       d="m 33.07,5.52 h 0.19845 v 5.32 H 33.07 Z"
       style="fill:none;stroke:#231f20;stroke-width:0.1;stroke-linecap:butt;stroke-linejoin:miter;stroke-miterlimit:10;stroke-dasharray:none;stroke-opacity:1"
       id="path94" /><path
       d="m 44.58,5.52 h 0.1981 v 4.92 H 44.58 Z"
       style="fill:#eae9e9;fill-opacity:1;fill-rule:nonzero;stroke:none"
       id="path96" /><path
       d="m 44.58,5.52 h 0.1981 v 4.92 H 44.58 Z"
       style="fill:none;stroke:#231f20;stroke-width:0.1;stroke-linecap:butt;stroke-linejoin:miter;stroke-miterlimit:10;stroke-dasharray:none;stroke-opacity:1"
       id="path98" /><path
       d="m 57.39,5.52 h 0.1981 v 4.84 H 57.39 Z"
       style="fill:#eae9e9;fill-opacity:1;fill-rule:nonzero;stroke:none"
       id="path100" /><path
       d="m 57.39,5.52 h 0.1981 v 4.84 H 57.39 Z"
       style="fill:none;stroke:#231f20;stroke-width:0.1;stroke-linecap:butt;stroke-linejoin:miter;stroke-miterlimit:10;stroke-dasharray:none;stroke-opacity:1"
       id="path102" /><path
       d="M 12.86,6.56 H 14.1 V 6.7581 H 12.86 Z"
       style="fill:#eae9e9;fill-opacity:1;fill-rule:nonzero;stroke:none"
       id="path104" /><path
       d="M 12.86,6.56 H 14.1 V 6.7581 H 12.86 Z"
       style="fill:none;stroke:#231f20;stroke-width:0.1;stroke-linecap:butt;stroke-linejoin:miter;stroke-miterlimit:10;stroke-dasharray:none;stroke-opacity:1"
       id="path106" /><path
       d="m 15.34,6.56 h 1.24 v 0.1981 h -1.24 z"
       style="fill:#eae9e9;fill-opacity:1;fill-rule:nonzero;stroke:none"
       id="path108" /><path
       d="m 15.34,6.56 h 1.24 v 0.1981 h -1.24 z"
       style="fill:none;stroke:#231f20;stroke-width:0.1;stroke-linecap:butt;stroke-linejoin:miter;stroke-miterlimit:10;stroke-dasharray:none;stroke-opacity:1"
       id="path110" /><path
       d="m 61.67,6.56 h 1.24 v 0.1981 h -1.24 z"
       style="fill:#eae9e9;fill-opacity:1;fill-rule:nonzero;stroke:none"
       id="path112" /><path
       d="m 61.67,6.56 h 1.24 v 0.1981 h -1.24 z"
       style="fill:none;stroke:#231f20;stroke-width:0.1;stroke-linecap:butt;stroke-linejoin:miter;stroke-miterlimit:10;stroke-dasharray:none;stroke-opacity:1"
       id="path114" /><path
       d="M 3.56,7.28 H 4.8 V 8.52 H 3.56 Z"
       style="fill:#eae9e9;fill-opacity:1;fill-rule:nonzero;stroke:none"
       id="path116" /><path
       d="M 3.56,7.28 H 4.8 V 8.52 H 3.56 Z"
       style="fill:none;stroke:#231f20;stroke-width:0.1;stroke-linecap:butt;stroke-linejoin:miter;stroke-miterlimit:10;stroke-dasharray:none;stroke-opacity:1"
       id="path118" /><path
       d="M 6.78,7.8 H 9.01 V 7.99845 H 6.78 Z"
       style="fill:#eae9e9;fill-opacity:1;fill-rule:nonzero;stroke:none"
       id="path120" /><path
       d="M 6.78,7.8 H 9.01 V 7.99845 H 6.78 Z"
       style="fill:none;stroke:#231f20;stroke-width:0.1;stroke-linecap:butt;stroke-linejoin:miter;stroke-miterlimit:10;stroke-dasharray:none;stroke-opacity:1"
       id="path122" /><path
       d="m 69.24,7.8 h 2.23 v 0.19845 h -2.23 z"
       style="fill:#eae9e9;fill-opacity:1;fill-rule:nonzero;stroke:none"
       id="path124" /><path
       d="m 69.24,7.8 h 2.23 v 0.19845 h -2.23 z"
       style="fill:none;stroke:#231f20;stroke-width:0.1;stroke-linecap:butt;stroke-linejoin:miter;stroke-miterlimit:10;stroke-dasharray:none;stroke-opacity:1"
       id="path126" /><path
       d="m 73.45,7.28 h 1.24 v 1.24 h -1.24 z"
       style="fill:#eae9e9;fill-opacity:1;fill-rule:nonzero;stroke:none"
       id="path128" /><path
       d="m 73.45,7.28 h 1.24 v 1.24 h -1.24 z"
       style="fill:none;stroke:#231f20;stroke-width:0.1;stroke-linecap:butt;stroke-linejoin:miter;stroke-miterlimit:10;stroke-dasharray:none;stroke-opacity:1"
       id="path130" /><path
       d="m 46.17,7.3 h 3.67 v 1.98 h -3.67 z"
       style="fill:#eae9e9;fill-opacity:1;fill-rule:nonzero;stroke:none"
       id="path132" /><path
       d="m 46.17,7.3 h 3.67 v 1.98 h -3.67 z"
       style="fill:none;stroke:#231f20;stroke-width:0.1;stroke-linecap:butt;stroke-linejoin:miter;stroke-miterlimit:10;stroke-dasharray:none;stroke-opacity:1"
       id="path134" /><path
       d="m 46.17,10.97 h 3.67 v 3.07 h -3.67 z"
       style="fill:#eae9e9;fill-opacity:1;fill-rule:nonzero;stroke:none"
       id="path136" /><path
       d="m 46.17,10.97 h 3.67 v 3.07 h -3.67 z"
       style="fill:none;stroke:#231f20;stroke-width:0.1;stroke-linecap:butt;stroke-linejoin:miter;stroke-miterlimit:10;stroke-dasharray:none;stroke-opacity:1"
       id="path138" /><path
       d="m 28.41,12.46 h 3.67 v 1.99 h -3.67 z"
       style="fill:#eae9e9;fill-opacity:1;fill-rule:nonzero;stroke:none"
       id="path140" /><path
       d="m 28.41,12.46 h 3.67 v 1.99 h -3.67 z"
       style="fill:none;stroke:#231f20;stroke-width:0.1;stroke-linecap:butt;stroke-linejoin:miter;stroke-miterlimit:10;stroke-dasharray:none;stroke-opacity:1"
       id="path142" /><path
       d="m 28.41,7.7 h 3.67 v 3.08 h -3.67 z"
       style="fill:#eae9e9;fill-opacity:1;fill-rule:nonzero;stroke:none"
       id="path144" /><path
       d="m 28.41,7.7 h 3.67 v 3.08 h -3.67 z"
       style="fill:none;stroke:#231f20;stroke-width:0.1;stroke-linecap:butt;stroke-linejoin:miter;stroke-miterlimit:10;stroke-dasharray:none;stroke-opacity:1"
       id="path146" /><path
       d="m 11.74,12.76 h 11.11 v 0.19845 H 11.74 Z"
       style="fill:#eae9e9;fill-opacity:1;fill-rule:nonzero;stroke:none"
       id="path148" /><path
       d="m 11.74,12.76 h 11.11 v 0.19845 H 11.74 Z"
       style="fill:none;stroke:#231f20;stroke-width:0.1;stroke-linecap:butt;stroke-linejoin:miter;stroke-miterlimit:10;stroke-dasharray:none;stroke-opacity:1"
       id="path150" /><path
       d="m 37.93,13.65 h 0.89285 v 1.19 H 37.93 Z"
       style="fill:#eae9e9;fill-opacity:1;fill-rule:nonzero;stroke:none"
       id="path152" /><path
       d="m 37.93,13.65 h 0.89285 v 1.19 H 37.93 Z"
       style="fill:none;stroke:#231f20;stroke-width:0.1;stroke-linecap:butt;stroke-linejoin:miter;stroke-miterlimit:10;stroke-dasharray:none;stroke-opacity:1"
       id="path154" /><path
       d="m 40.51,13.65 h 0.89285 v 1.19 H 40.51 Z"
       style="fill:#eae9e9;fill-opacity:1;fill-rule:nonzero;stroke:none"
       id="path156" /><path
       d="m 40.51,13.65 h 0.89285 v 1.19 H 40.51 Z"
       style="fill:none;stroke:#231f20;stroke-width:0.1;stroke-linecap:butt;stroke-linejoin:miter;stroke-miterlimit:10;stroke-dasharray:none;stroke-opacity:1"
       id="path158" /><path
       d="m 62.04,14.12 h 0.1981 v 0.97755 H 62.04 Z"
       style="fill:#eae9e9;fill-opacity:1;fill-rule:nonzero;stroke:none"
       id="path160" /><path
       d="m 62.04,14.12 h 0.1981 v 0.97755 H 62.04 Z"
       style="fill:none;stroke:#231f20;stroke-width:0.1;stroke-linecap:butt;stroke-linejoin:miter;stroke-miterlimit:10;stroke-dasharray:none;stroke-opacity:1"
       id="path162" /><path
       d="m 37.93,16.23 h 0.89285 v 1.19 H 37.93 Z"
       style="fill:#eae9e9;fill-opacity:1;fill-rule:nonzero;stroke:none"
       id="path164" /><path
       d="m 37.93,16.23 h 0.89285 v 1.19 H 37.93 Z"
       style="fill:none;stroke:#231f20;stroke-width:0.1;stroke-linecap:butt;stroke-linejoin:miter;stroke-miterlimit:10;stroke-dasharray:none;stroke-opacity:1"
       id="path166" /><path
       d="m 40.51,16.23 h 0.89285 v 1.19 H 40.51 Z"
       style="fill:#eae9e9;fill-opacity:1;fill-rule:nonzero;stroke:none"
       id="path168" /><path
       d="m 40.51,16.23 h 0.89285 v 1.19 H 40.51 Z"
       style="fill:none;stroke:#231f20;stroke-width:0.1;stroke-linecap:butt;stroke-linejoin:miter;stroke-miterlimit:10;stroke-dasharray:none;stroke-opacity:1"
       id="path170" /><path
       d="m 33.62,16.8 h 0.1995 v 0.9464 H 33.62 Z"
       style="fill:#eae9e9;fill-opacity:1;fill-rule:nonzero;stroke:none"
       id="path172" /><path
       d="m 33.62,16.8 h 0.1995 v 0.9464 H 33.62 Z"
       style="fill:none;stroke:#231f20;stroke-width:0.1;stroke-linecap:butt;stroke-linejoin:miter;stroke-miterlimit:10;stroke-dasharray:none;stroke-opacity:1"
       id="path174" /><path
       d="m 35.7,17.22 h 1.5 v 0.1995 h -1.5 z"
       style="fill:#eae9e9;fill-opacity:1;fill-rule:nonzero;stroke:none"
       id="path176" /><path
       d="m 35.7,17.22 h 1.5 v 0.1995 h -1.5 z"
       style="fill:none;stroke:#231f20;stroke-width:0.1;stroke-linecap:butt;stroke-linejoin:miter;stroke-miterlimit:10;stroke-dasharray:none;stroke-opacity:1"
       id="path178" /><path
       d="m 36.45,18.71 h 1.19 v 0.89285 h -1.19 z"
       style="fill:#eae9e9;fill-opacity:1;fill-rule:nonzero;stroke:none"
       id="path180" /><path
       d="m 36.45,18.71 h 1.19 v 0.89285 h -1.19 z"
       style="fill:none;stroke:#231f20;stroke-width:0.1;stroke-linecap:butt;stroke-linejoin:miter;stroke-miterlimit:10;stroke-dasharray:none;stroke-opacity:1"
       id="path182" /><path
       d="m 44.73,16.6 h 0.1981 v 0.63035 H 44.73 Z"
       style="fill:#eae9e9;fill-opacity:1;fill-rule:nonzero;stroke:none"
       id="path184" /><path
       d="m 44.73,16.6 h 0.1981 v 0.63035 H 44.73 Z"
       style="fill:none;stroke:#231f20;stroke-width:0.1;stroke-linecap:butt;stroke-linejoin:miter;stroke-miterlimit:10;stroke-dasharray:none;stroke-opacity:1"
       id="path186" /><path
       d="m 62.84,16.6 h 0.19845 v 0.63035 H 62.84 Z"
       style="fill:#eae9e9;fill-opacity:1;fill-rule:nonzero;stroke:none"
       id="path188" /><path
       d="m 62.84,16.6 h 0.19845 v 0.63035 H 62.84 Z"
       style="fill:none;stroke:#231f20;stroke-width:0.1;stroke-linecap:butt;stroke-linejoin:miter;stroke-miterlimit:10;stroke-dasharray:none;stroke-opacity:1"
       id="path190" /><path
       d="m 39.02,18.71 h 1.19 v 0.89285 h -1.19 z"
       style="fill:#eae9e9;fill-opacity:1;fill-rule:nonzero;stroke:none"
       id="path192" /><path
       d="m 39.02,18.71 h 1.19 v 0.89285 h -1.19 z"
       style="fill:none;stroke:#231f20;stroke-width:0.1;stroke-linecap:butt;stroke-linejoin:miter;stroke-miterlimit:10;stroke-dasharray:none;stroke-opacity:1"
       id="path194" /><path
       d="m 34.26,19.8 h 0.8925 v 1.19 H 34.26 Z"
       style="fill:#eae9e9;fill-opacity:1;fill-rule:nonzero;stroke:none"
       id="path196" /><path
       d="m 34.26,19.8 h 0.8925 v 1.19 H 34.26 Z"
       style="fill:none;stroke:#231f20;stroke-width:0.1;stroke-linecap:butt;stroke-linejoin:miter;stroke-miterlimit:10;stroke-dasharray:none;stroke-opacity:1"
       id="path198" /><path
       d="m 11.74,17.72 h 3.27 v 0.1995 h -3.27 z"
       style="fill:#eae9e9;fill-opacity:1;fill-rule:nonzero;stroke:none"
       id="path200" /><path
       d="m 11.74,17.72 h 3.27 v 0.1995 h -3.27 z"
       style="fill:none;stroke:#231f20;stroke-width:0.1;stroke-linecap:butt;stroke-linejoin:miter;stroke-miterlimit:10;stroke-dasharray:none;stroke-opacity:1"
       id="path202" /><path
       d="m 14.82,18.71 h 19.53 v 0.1981 H 14.82 Z"
       style="fill:#eae9e9;fill-opacity:1;fill-rule:nonzero;stroke:none"
       id="path204" /><path
       d="m 14.82,18.71 h 19.53 v 0.1981 H 14.82 Z"
       style="fill:none;stroke:#231f20;stroke-width:0.1;stroke-linecap:butt;stroke-linejoin:miter;stroke-miterlimit:10;stroke-dasharray:none;stroke-opacity:1"
       id="path206" /><path
       d="m 41.6,18.71 h 1.19 v 0.89285 H 41.6 Z"
       style="fill:#eae9e9;fill-opacity:1;fill-rule:nonzero;stroke:none"
       id="path208" /><path
       d="m 41.6,18.71 h 1.19 v 0.89285 H 41.6 Z"
       style="fill:none;stroke:#231f20;stroke-width:0.1;stroke-linecap:butt;stroke-linejoin:miter;stroke-miterlimit:10;stroke-dasharray:none;stroke-opacity:1"
       id="path210" /><path
       d="m 63.63,18.96 h 5.58 v 0.1981 h -5.58 z"
       style="fill:#eae9e9;fill-opacity:1;fill-rule:nonzero;stroke:none"
       id="path212" /><path
       d="m 63.63,18.96 h 5.58 v 0.1981 h -5.58 z"
       style="fill:none;stroke:#231f20;stroke-width:0.1;stroke-linecap:butt;stroke-linejoin:miter;stroke-miterlimit:10;stroke-dasharray:none;stroke-opacity:1"
       id="path214" /><path
       d="m 41.6,21.29 h 1.19 v 0.89285 H 41.6 Z"
       style="fill:#eae9e9;fill-opacity:1;fill-rule:nonzero;stroke:none"
       id="path216" /><path
       d="m 41.6,21.29 h 1.19 v 0.89285 H 41.6 Z"
       style="fill:none;stroke:#231f20;stroke-width:0.1;stroke-linecap:butt;stroke-linejoin:miter;stroke-miterlimit:10;stroke-dasharray:none;stroke-opacity:1"
       id="path218" /><path
       d="m 43.91,20.89 h 19.92 v 0.19985 H 43.91 Z"
       style="fill:#eae9e9;fill-opacity:1;fill-rule:nonzero;stroke:none"
       id="path220" /><path
       d="m 43.91,20.89 h 19.92 v 0.19985 H 43.91 Z"
       style="fill:none;stroke:#231f20;stroke-width:0.1;stroke-linecap:butt;stroke-linejoin:miter;stroke-miterlimit:10;stroke-dasharray:none;stroke-opacity:1"
       id="path222" /><path
       d="m 9.04,21.44 h 4.79 v 0.1995 H 9.04 Z"
       style="fill:#eae9e9;fill-opacity:1;fill-rule:nonzero;stroke:none"
       id="path224" /><path
       d="m 9.04,21.44 h 4.79 v 0.1995 H 9.04 Z"
       style="fill:none;stroke:#231f20;stroke-width:0.1;stroke-linecap:butt;stroke-linejoin:miter;stroke-miterlimit:10;stroke-dasharray:none;stroke-opacity:1"
       id="path226" /><path
       d="m 37.93,23.97 h 0.89285 v 1.19 H 37.93 Z"
       style="fill:#eae9e9;fill-opacity:1;fill-rule:nonzero;stroke:none"
       id="path228" /><path
       d="m 37.93,23.97 h 0.89285 v 1.19 H 37.93 Z"
       style="fill:none;stroke:#231f20;stroke-width:0.1;stroke-linecap:butt;stroke-linejoin:miter;stroke-miterlimit:10;stroke-dasharray:none;stroke-opacity:1"
       id="path230" /><path
       d="m 13.63,23.87 h 23.3 v 0.19845 h -23.3 z"
       style="fill:#eae9e9;fill-opacity:1;fill-rule:nonzero;stroke:none"
       id="path232" /><path
       d="m 13.63,23.87 h 23.3 v 0.19845 h -23.3 z"
       style="fill:none;stroke:#231f20;stroke-width:0.1;stroke-linecap:butt;stroke-linejoin:miter;stroke-miterlimit:10;stroke-dasharray:none;stroke-opacity:1"
       id="path234" /><path
       d="m 36.45,21.29 h 1.19 v 0.89285 h -1.19 z"
       style="fill:#eae9e9;fill-opacity:1;fill-rule:nonzero;stroke:none"
       id="path236" /><path
       d="m 36.45,21.29 h 1.19 v 0.89285 h -1.19 z"
       style="fill:none;stroke:#231f20;stroke-width:0.1;stroke-linecap:butt;stroke-linejoin:miter;stroke-miterlimit:10;stroke-dasharray:none;stroke-opacity:1"
       id="path238" /><path
       d="m 39.02,21.29 h 1.19 v 0.89285 h -1.19 z"
       style="fill:#eae9e9;fill-opacity:1;fill-rule:nonzero;stroke:none"
       id="path240" /><path
       d="m 39.02,21.29 h 1.19 v 0.89285 h -1.19 z"
       style="fill:none;stroke:#231f20;stroke-width:0.1;stroke-linecap:butt;stroke-linejoin:miter;stroke-miterlimit:10;stroke-dasharray:none;stroke-opacity:1"
       id="path242" /><path
       d="m 40.51,23.97 h 0.89285 v 1.19 H 40.51 Z"
       style="fill:#eae9e9;fill-opacity:1;fill-rule:nonzero;stroke:none"
       id="path244" /><path
       d="m 40.51,23.97 h 0.89285 v 1.19 H 40.51 Z"
       style="fill:none;stroke:#231f20;stroke-width:0.1;stroke-linecap:butt;stroke-linejoin:miter;stroke-miterlimit:10;stroke-dasharray:none;stroke-opacity:1"
       id="path246" /><path
       d="m 35.35,26.55 h 0.8939 v 1.19 H 35.35 Z"
       style="fill:#eae9e9;fill-opacity:1;fill-rule:nonzero;stroke:none"
       id="path248" /><path
       d="m 35.35,26.55 h 0.8939 v 1.19 H 35.35 Z"
       style="fill:none;stroke:#231f20;stroke-width:0.1;stroke-linecap:butt;stroke-linejoin:miter;stroke-miterlimit:10;stroke-dasharray:none;stroke-opacity:1"
       id="path250" /><path
       d="m 35.7,24.96 h 1.5 v 0.19845 h -1.5 z"
       style="fill:#eae9e9;fill-opacity:1;fill-rule:nonzero;stroke:none"
       id="path252" /><path
       d="m 35.7,24.96 h 1.5 v 0.19845 h -1.5 z"
       style="fill:none;stroke:#231f20;stroke-width:0.1;stroke-linecap:butt;stroke-linejoin:miter;stroke-miterlimit:10;stroke-dasharray:none;stroke-opacity:1"
       id="path254" /><path
       d="m 37.93,26.55 h 0.89285 v 1.19 H 37.93 Z"
       style="fill:#eae9e9;fill-opacity:1;fill-rule:nonzero;stroke:none"
       id="path256" /><path
       d="m 37.93,26.55 h 0.89285 v 1.19 H 37.93 Z"
       style="fill:none;stroke:#231f20;stroke-width:0.1;stroke-linecap:butt;stroke-linejoin:miter;stroke-miterlimit:10;stroke-dasharray:none;stroke-opacity:1"
       id="path258" /><path
       d="m 40.51,26.55 h 0.89285 v 1.19 H 40.51 Z"
       style="fill:#eae9e9;fill-opacity:1;fill-rule:nonzero;stroke:none"
       id="path260" /><path
       d="m 40.51,26.55 h 0.89285 v 1.19 H 40.51 Z"
       style="fill:none;stroke:#231f20;stroke-width:0.1;stroke-linecap:butt;stroke-linejoin:miter;stroke-miterlimit:10;stroke-dasharray:none;stroke-opacity:1"
       id="path262" /><path
       d="m 43.09,26.55 h 0.89425 v 1.19 H 43.09 Z"
       style="fill:#eae9e9;fill-opacity:1;fill-rule:nonzero;stroke:none"
       id="path264" /><path
       d="m 43.09,26.55 h 0.89425 v 1.19 H 43.09 Z"
       style="fill:none;stroke:#231f20;stroke-width:0.1;stroke-linecap:butt;stroke-linejoin:miter;stroke-miterlimit:10;stroke-dasharray:none;stroke-opacity:1"
       id="path266" /><path
       d="m 65.22,24.04 h 0.1981 v 2.09 H 65.22 Z"
       style="fill:#eae9e9;fill-opacity:1;fill-rule:nonzero;stroke:none"
       id="path268" /><path
       d="m 65.22,24.04 h 0.1981 v 2.09 H 65.22 Z"
       style="fill:none;stroke:#231f20;stroke-width:0.1;stroke-linecap:butt;stroke-linejoin:miter;stroke-miterlimit:10;stroke-dasharray:none;stroke-opacity:1"
       id="path270" /><path
       d="m 12.44,25.16 h 0.19845 v 4.07 H 12.44 Z"
       style="fill:#eae9e9;fill-opacity:1;fill-rule:nonzero;stroke:none"
       id="path272" /><path
       d="m 12.44,25.16 h 0.19845 v 4.07 H 12.44 Z"
       style="fill:none;stroke:#231f20;stroke-width:0.1;stroke-linecap:butt;stroke-linejoin:miter;stroke-miterlimit:10;stroke-dasharray:none;stroke-opacity:1"
       id="path274" /><path
       d="m 35.35,29.13 h 0.8939 v 1.19 H 35.35 Z"
       style="fill:#eae9e9;fill-opacity:1;fill-rule:nonzero;stroke:none"
       id="path276" /><path
       d="m 35.35,29.13 h 0.8939 v 1.19 H 35.35 Z"
       style="fill:none;stroke:#231f20;stroke-width:0.1;stroke-linecap:butt;stroke-linejoin:miter;stroke-miterlimit:10;stroke-dasharray:none;stroke-opacity:1"
       id="path278" /><path
       d="m 12.24,30.22 h 0.5222 v 0.1981 H 12.24 Z"
       style="fill:#eae9e9;fill-opacity:1;fill-rule:nonzero;stroke:none"
       id="path280" /><path
       d="m 12.24,30.22 h 0.5222 v 0.1981 H 12.24 Z"
       style="fill:none;stroke:#231f20;stroke-width:0.1;stroke-linecap:butt;stroke-linejoin:miter;stroke-miterlimit:10;stroke-dasharray:none;stroke-opacity:1"
       id="path282" /><path
       d="m 14.33,30.22 h 0.5222 v 0.1981 H 14.33 Z"
       style="fill:#eae9e9;fill-opacity:1;fill-rule:nonzero;stroke:none"
       id="path284" /><path
       d="m 14.33,30.22 h 0.5222 v 0.1981 H 14.33 Z"
       style="fill:none;stroke:#231f20;stroke-width:0.1;stroke-linecap:butt;stroke-linejoin:miter;stroke-miterlimit:10;stroke-dasharray:none;stroke-opacity:1"
       id="path286" /><path
       d="m 16.42,30.22 h 0.5208 v 0.1981 H 16.42 Z"
       style="fill:#eae9e9;fill-opacity:1;fill-rule:nonzero;stroke:none"
       id="path288" /><path
       d="m 16.42,30.22 h 0.5208 v 0.1981 H 16.42 Z"
       style="fill:none;stroke:#231f20;stroke-width:0.1;stroke-linecap:butt;stroke-linejoin:miter;stroke-miterlimit:10;stroke-dasharray:none;stroke-opacity:1"
       id="path290" /><path
       d="m 18.5,30.22 h 0.5222 v 0.1981 H 18.5 Z"
       style="fill:#eae9e9;fill-opacity:1;fill-rule:nonzero;stroke:none"
       id="path292" /><path
       d="m 18.5,30.22 h 0.5222 v 0.1981 H 18.5 Z"
       style="fill:none;stroke:#231f20;stroke-width:0.1;stroke-linecap:butt;stroke-linejoin:miter;stroke-miterlimit:10;stroke-dasharray:none;stroke-opacity:1"
       id="path294" /><path
       d="m 20.59,30.22 h 0.5222 v 0.1981 H 20.59 Z"
       style="fill:#eae9e9;fill-opacity:1;fill-rule:nonzero;stroke:none"
       id="path296" /><path
       d="m 20.59,30.22 h 0.5222 v 0.1981 H 20.59 Z"
       style="fill:none;stroke:#231f20;stroke-width:0.1;stroke-linecap:butt;stroke-linejoin:miter;stroke-miterlimit:10;stroke-dasharray:none;stroke-opacity:1"
       id="path298" /><path
       d="m 56.09,30.22 h 0.5222 v 0.1981 H 56.09 Z"
       style="fill:#eae9e9;fill-opacity:1;fill-rule:nonzero;stroke:none"
       id="path300" /><path
       d="m 56.09,30.22 h 0.5222 v 0.1981 H 56.09 Z"
       style="fill:none;stroke:#231f20;stroke-width:0.1;stroke-linecap:butt;stroke-linejoin:miter;stroke-miterlimit:10;stroke-dasharray:none;stroke-opacity:1"
       id="path302" /><path
       d="m 58.18,30.22 h 0.5236 v 0.1981 H 58.18 Z"
       style="fill:#eae9e9;fill-opacity:1;fill-rule:nonzero;stroke:none"
       id="path304" /><path
       d="m 58.18,30.22 h 0.5236 v 0.1981 H 58.18 Z"
       style="fill:none;stroke:#231f20;stroke-width:0.1;stroke-linecap:butt;stroke-linejoin:miter;stroke-miterlimit:10;stroke-dasharray:none;stroke-opacity:1"
       id="path306" /><path
       d="m 60.27,30.22 h 0.5222 v 0.1981 H 60.27 Z"
       style="fill:#eae9e9;fill-opacity:1;fill-rule:nonzero;stroke:none"
       id="path308" /><path
       d="m 60.27,30.22 h 0.5222 v 0.1981 H 60.27 Z"
       style="fill:none;stroke:#231f20;stroke-width:0.1;stroke-linecap:butt;stroke-linejoin:miter;stroke-miterlimit:10;stroke-dasharray:none;stroke-opacity:1"
       id="path310" /><path
       d="m 62.36,30.22 h 0.5222 v 0.1981 H 62.36 Z"
       style="fill:#eae9e9;fill-opacity:1;fill-rule:nonzero;stroke:none"
       id="path312" /><path
       d="m 62.36,30.22 h 0.5222 v 0.1981 H 62.36 Z"
       style="fill:none;stroke:#231f20;stroke-width:0.1;stroke-linecap:butt;stroke-linejoin:miter;stroke-miterlimit:10;stroke-dasharray:none;stroke-opacity:1"
       id="path314" /><path
       d="m 64.44,30.22 h 0.5208 v 0.1981 H 64.44 Z"
       style="fill:#eae9e9;fill-opacity:1;fill-rule:nonzero;stroke:none"
       id="path316" /><path
       d="m 64.44,30.22 h 0.5208 v 0.1981 H 64.44 Z"
       style="fill:none;stroke:#231f20;stroke-width:0.1;stroke-linecap:butt;stroke-linejoin:miter;stroke-miterlimit:10;stroke-dasharray:none;stroke-opacity:1"
       id="path318" /><path
       d="m 35.33,29.56 h 0.721 v 0.721 H 35.33 Z"
       style="fill:#4e67a0;fill-opacity:1;fill-rule:nonzero;stroke:none"
       id="path320" /></g></svg>
