<?xml version="1.0" encoding="UTF-8" standalone="no"?>
<svg
   xmlns:dc="http://purl.org/dc/elements/1.1/"
   xmlns:cc="http://creativecommons.org/ns#"
   xmlns:rdf="http://www.w3.org/1999/02/22-rdf-syntax-ns#"
   xmlns:svg="http://www.w3.org/2000/svg"
   xmlns="http://www.w3.org/2000/svg"
   version="1.1"
   id="svg2"
   xml:space="preserve"
   width="104.33333"
   height="80.58667"
   viewBox="0 0 104.33333 80.58667"><metadata
     id="metadata8"><rdf:RDF><cc:Work
         rdf:about=""><dc:format>image/svg+xml</dc:format><dc:type
           rdf:resource="http://purl.org/dc/dcmitype/StillImage" /></cc:Work></rdf:RDF></metadata><defs
     id="defs6" /><g
     id="g10"
     transform="matrix(1.3333333,0,0,-1.3333333,0,80.586667)"><path
       d="M 19.27,5.12 H 34.46 V 5.3195 H 19.27 Z"
       style="fill:#eae9e9;fill-opacity:1;fill-rule:nonzero;stroke:none"
       id="path12" /><path
       d="M 19.27,5.12 H 34.46 V 5.3195 H 19.27 Z"
       style="fill:none;stroke:#231f20;stroke-width:0.1;stroke-linecap:butt;stroke-linejoin:miter;stroke-miterlimit:10;stroke-dasharray:none;stroke-opacity:1"
       id="path14" /><path
       d="m 29.3,10.97 h 1.98 v 1.29 H 29.3 Z"
       style="fill:#eae9e9;fill-opacity:1;fill-rule:nonzero;stroke:none"
       id="path16" /><path
       d="m 29.3,10.97 h 1.98 v 1.29 H 29.3 Z"
       style="fill:none;stroke:#231f20;stroke-width:0.1;stroke-linecap:butt;stroke-linejoin:miter;stroke-miterlimit:10;stroke-dasharray:none;stroke-opacity:1"
       id="path18" /><path
       d="M 44.7,5.52 H 57.47 V 5.7181 H 44.7 Z"
       style="fill:#eae9e9;fill-opacity:1;fill-rule:nonzero;stroke:none"
       id="path20" /><path
       d="M 44.7,5.52 H 57.47 V 5.7181 H 44.7 Z"
       style="fill:none;stroke:#231f20;stroke-width:0.1;stroke-linecap:butt;stroke-linejoin:miter;stroke-miterlimit:10;stroke-dasharray:none;stroke-opacity:1"
       id="path22" /><path
       d="m 64.15,6.56 h 1.24 v 0.1981 h -1.24 z"
       style="fill:#eae9e9;fill-opacity:1;fill-rule:nonzero;stroke:none"
       id="path24" /><path
       d="m 64.15,6.56 h 1.24 v 0.1981 h -1.24 z"
       style="fill:none;stroke:#231f20;stroke-width:0.1;stroke-linecap:butt;stroke-linejoin:miter;stroke-miterlimit:10;stroke-dasharray:none;stroke-opacity:1"
       id="path26" /><path
       d="m 36.84,12.06 h 0.8925 v 1.19 H 36.84 Z"
       style="fill:#eae9e9;fill-opacity:1;fill-rule:nonzero;stroke:none"
       id="path28" /><path
       d="m 36.84,12.06 h 0.8925 v 1.19 H 36.84 Z"
       style="fill:none;stroke:#231f20;stroke-width:0.1;stroke-linecap:butt;stroke-linejoin:miter;stroke-miterlimit:10;stroke-dasharray:none;stroke-opacity:1"
       id="path30" /><path
       d="m 9.04,12.98 h 0.19845 v 1.1 H 9.04 Z"
       style="fill:#eae9e9;fill-opacity:1;fill-rule:nonzero;stroke:none"
       id="path32" /><path
       d="m 9.04,12.98 h 0.19845 v 1.1 H 9.04 Z"
       style="fill:none;stroke:#231f20;stroke-width:0.1;stroke-linecap:butt;stroke-linejoin:miter;stroke-miterlimit:10;stroke-dasharray:none;stroke-opacity:1"
       id="path34" /><path
       d="m 32.53,14.25 h 4.4 v 0.19845 h -4.4 z"
       style="fill:#eae9e9;fill-opacity:1;fill-rule:nonzero;stroke:none"
       id="path36" /><path
       d="m 32.53,14.25 h 4.4 v 0.19845 h -4.4 z"
       style="fill:none;stroke:#231f20;stroke-width:0.1;stroke-linecap:butt;stroke-linejoin:miter;stroke-miterlimit:10;stroke-dasharray:none;stroke-opacity:1"
       id="path38" /><path
       d="m 39.42,12.06 h 0.89285 v 1.19 H 39.42 Z"
       style="fill:#eae9e9;fill-opacity:1;fill-rule:nonzero;stroke:none"
       id="path40" /><path
       d="m 39.42,12.06 h 0.89285 v 1.19 H 39.42 Z"
       style="fill:none;stroke:#231f20;stroke-width:0.1;stroke-linecap:butt;stroke-linejoin:miter;stroke-miterlimit:10;stroke-dasharray:none;stroke-opacity:1"
       id="path42" /><path
       d="m 69.01,12.98 h 0.1981 v 1.1 H 69.01 Z"
       style="fill:#eae9e9;fill-opacity:1;fill-rule:nonzero;stroke:none"
       id="path44" /><path
       d="m 69.01,12.98 h 0.1981 v 1.1 H 69.01 Z"
       style="fill:none;stroke:#231f20;stroke-width:0.1;stroke-linecap:butt;stroke-linejoin:miter;stroke-miterlimit:10;stroke-dasharray:none;stroke-opacity:1"
       id="path46" /><path
       d="m 45.62,13.27 h 0.1981 v 1.82 H 45.62 Z"
       style="fill:#eae9e9;fill-opacity:1;fill-rule:nonzero;stroke:none"
       id="path48" /><path
       d="m 45.62,13.27 h 0.1981 v 1.82 H 45.62 Z"
       style="fill:none;stroke:#231f20;stroke-width:0.1;stroke-linecap:butt;stroke-linejoin:miter;stroke-miterlimit:10;stroke-dasharray:none;stroke-opacity:1"
       id="path50" /><path
       d="m 11.74,15.24 h 4.07 v 0.19845 h -4.07 z"
       style="fill:#eae9e9;fill-opacity:1;fill-rule:nonzero;stroke:none"
       id="path52" /><path
       d="m 11.74,15.24 h 4.07 v 0.19845 h -4.07 z"
       style="fill:none;stroke:#231f20;stroke-width:0.1;stroke-linecap:butt;stroke-linejoin:miter;stroke-miterlimit:10;stroke-dasharray:none;stroke-opacity:1"
       id="path54" /><path
       d="m 38.03,15.04 h 1.19 v 0.89285 h -1.19 z"
       style="fill:#eae9e9;fill-opacity:1;fill-rule:nonzero;stroke:none"
       id="path56" /><path
       d="m 38.03,15.04 h 1.19 v 0.89285 h -1.19 z"
       style="fill:none;stroke:#231f20;stroke-width:0.1;stroke-linecap:butt;stroke-linejoin:miter;stroke-miterlimit:10;stroke-dasharray:none;stroke-opacity:1"
       id="path58" /><path
       d="m 33.07,16.13 h 3.85 v 0.1995 h -3.85 z"
       style="fill:#eae9e9;fill-opacity:1;fill-rule:nonzero;stroke:none"
       id="path60" /><path
       d="m 33.07,16.13 h 3.85 v 0.1995 h -3.85 z"
       style="fill:none;stroke:#231f20;stroke-width:0.1;stroke-linecap:butt;stroke-linejoin:miter;stroke-miterlimit:10;stroke-dasharray:none;stroke-opacity:1"
       id="path62" /><path
       d="m 62.44,15.24 h 4.07 v 0.19845 h -4.07 z"
       style="fill:#eae9e9;fill-opacity:1;fill-rule:nonzero;stroke:none"
       id="path64" /><path
       d="m 62.44,15.24 h 4.07 v 0.19845 h -4.07 z"
       style="fill:none;stroke:#231f20;stroke-width:0.1;stroke-linecap:butt;stroke-linejoin:miter;stroke-miterlimit:10;stroke-dasharray:none;stroke-opacity:1"
       id="path66" /><path
       d="m 41.33,15.74 h 3.93 v 0.19845 h -3.93 z"
       style="fill:#eae9e9;fill-opacity:1;fill-rule:nonzero;stroke:none"
       id="path68" /><path
       d="m 41.33,15.74 h 3.93 v 0.19845 h -3.93 z"
       style="fill:none;stroke:#231f20;stroke-width:0.1;stroke-linecap:butt;stroke-linejoin:miter;stroke-miterlimit:10;stroke-dasharray:none;stroke-opacity:1"
       id="path70" /><path
       d="m 36.84,17.22 h 0.8925 v 1.19 H 36.84 Z"
       style="fill:#eae9e9;fill-opacity:1;fill-rule:nonzero;stroke:none"
       id="path72" /><path
       d="m 36.84,17.22 h 0.8925 v 1.19 H 36.84 Z"
       style="fill:none;stroke:#231f20;stroke-width:0.1;stroke-linecap:butt;stroke-linejoin:miter;stroke-miterlimit:10;stroke-dasharray:none;stroke-opacity:1"
       id="path74" /><path
       d="m 15.21,16.6 h 0.1981 v 1.03 H 15.21 Z"
       style="fill:#eae9e9;fill-opacity:1;fill-rule:nonzero;stroke:none"
       id="path76" /><path
       d="m 15.21,16.6 h 0.1981 v 1.03 H 15.21 Z"
       style="fill:none;stroke:#231f20;stroke-width:0.1;stroke-linecap:butt;stroke-linejoin:miter;stroke-miterlimit:10;stroke-dasharray:none;stroke-opacity:1"
       id="path78" /><path
       d="m 44.73,17.15 h 18.3 v 0.19845 h -18.3 z"
       style="fill:#eae9e9;fill-opacity:1;fill-rule:nonzero;stroke:none"
       id="path80" /><path
       d="m 44.73,17.15 h 18.3 v 0.19845 h -18.3 z"
       style="fill:none;stroke:#231f20;stroke-width:0.1;stroke-linecap:butt;stroke-linejoin:miter;stroke-miterlimit:10;stroke-dasharray:none;stroke-opacity:1"
       id="path82" /><path
       d="m 39.42,17.22 h 0.89285 v 1.19 H 39.42 Z"
       style="fill:#eae9e9;fill-opacity:1;fill-rule:nonzero;stroke:none"
       id="path84" /><path
       d="m 39.42,17.22 h 0.89285 v 1.19 H 39.42 Z"
       style="fill:none;stroke:#231f20;stroke-width:0.1;stroke-linecap:butt;stroke-linejoin:miter;stroke-miterlimit:10;stroke-dasharray:none;stroke-opacity:1"
       id="path86" /><path
       d="m 8.52,17.2 h 1.24 v 1.24 H 8.52 Z"
       style="fill:#eae9e9;fill-opacity:1;fill-rule:nonzero;stroke:none"
       id="path88" /><path
       d="m 8.52,17.2 h 1.24 v 1.24 H 8.52 Z"
       style="fill:none;stroke:#231f20;stroke-width:0.1;stroke-linecap:butt;stroke-linejoin:miter;stroke-miterlimit:10;stroke-dasharray:none;stroke-opacity:1"
       id="path90" /><path
       d="m 14.42,18.96 h 0.19845 v 2.41 H 14.42 Z"
       style="fill:#eae9e9;fill-opacity:1;fill-rule:nonzero;stroke:none"
       id="path92" /><path
       d="m 14.42,18.96 h 0.19845 v 2.41 H 14.42 Z"
       style="fill:none;stroke:#231f20;stroke-width:0.1;stroke-linecap:butt;stroke-linejoin:miter;stroke-miterlimit:10;stroke-dasharray:none;stroke-opacity:1"
       id="path94" /><path
       d="m 35.45,20.2 h 1.19 v 0.89425 h -1.19 z"
       style="fill:#eae9e9;fill-opacity:1;fill-rule:nonzero;stroke:none"
       id="path96" /><path
       d="m 35.45,20.2 h 1.19 v 0.89425 h -1.19 z"
       style="fill:none;stroke:#231f20;stroke-width:0.1;stroke-linecap:butt;stroke-linejoin:miter;stroke-miterlimit:10;stroke-dasharray:none;stroke-opacity:1"
       id="path98" /><path
       d="m 11,17.2 h 1.24 v 1.24 H 11 Z"
       style="fill:#eae9e9;fill-opacity:1;fill-rule:nonzero;stroke:none"
       id="path100" /><path
       d="m 11,17.2 h 1.24 v 1.24 H 11 Z"
       style="fill:none;stroke:#231f20;stroke-width:0.1;stroke-linecap:butt;stroke-linejoin:miter;stroke-miterlimit:10;stroke-dasharray:none;stroke-opacity:1"
       id="path102" /><path
       d="m 33.87,18.71 h 1.19 v 0.89285 h -1.19 z"
       style="fill:#eae9e9;fill-opacity:1;fill-rule:nonzero;stroke:none"
       id="path104" /><path
       d="m 33.87,18.71 h 1.19 v 0.89285 h -1.19 z"
       style="fill:none;stroke:#231f20;stroke-width:0.1;stroke-linecap:butt;stroke-linejoin:miter;stroke-miterlimit:10;stroke-dasharray:none;stroke-opacity:1"
       id="path106" /><path
       d="m 42,17.22 h 0.89285 v 1.19 H 42 Z"
       style="fill:#eae9e9;fill-opacity:1;fill-rule:nonzero;stroke:none"
       id="path108" /><path
       d="m 42,17.22 h 0.89285 v 1.19 H 42 Z"
       style="fill:none;stroke:#231f20;stroke-width:0.1;stroke-linecap:butt;stroke-linejoin:miter;stroke-miterlimit:10;stroke-dasharray:none;stroke-opacity:1"
       id="path110" /><path
       d="m 43.91,18.32 h 19.53 v 0.19845 H 43.91 Z"
       style="fill:#eae9e9;fill-opacity:1;fill-rule:nonzero;stroke:none"
       id="path112" /><path
       d="m 43.91,18.32 h 19.53 v 0.19845 H 43.91 Z"
       style="fill:none;stroke:#231f20;stroke-width:0.1;stroke-linecap:butt;stroke-linejoin:miter;stroke-miterlimit:10;stroke-dasharray:none;stroke-opacity:1"
       id="path114" /><path
       d="m 68.49,17.2 h 1.24 v 1.24 h -1.24 z"
       style="fill:#eae9e9;fill-opacity:1;fill-rule:nonzero;stroke:none"
       id="path116" /><path
       d="m 68.49,17.2 h 1.24 v 1.24 h -1.24 z"
       style="fill:none;stroke:#231f20;stroke-width:0.1;stroke-linecap:butt;stroke-linejoin:miter;stroke-miterlimit:10;stroke-dasharray:none;stroke-opacity:1"
       id="path118" /><path
       d="m 43.19,20.2 h 1.19 v 0.89425 h -1.19 z"
       style="fill:#eae9e9;fill-opacity:1;fill-rule:nonzero;stroke:none"
       id="path120" /><path
       d="m 43.19,20.2 h 1.19 v 0.89425 h -1.19 z"
       style="fill:none;stroke:#231f20;stroke-width:0.1;stroke-linecap:butt;stroke-linejoin:miter;stroke-miterlimit:10;stroke-dasharray:none;stroke-opacity:1"
       id="path122" /><path
       d="m 36.84,22.38 h 0.8925 v 1.19 H 36.84 Z"
       style="fill:#eae9e9;fill-opacity:1;fill-rule:nonzero;stroke:none"
       id="path124" /><path
       d="m 36.84,22.38 h 0.8925 v 1.19 H 36.84 Z"
       style="fill:none;stroke:#231f20;stroke-width:0.1;stroke-linecap:butt;stroke-linejoin:miter;stroke-miterlimit:10;stroke-dasharray:none;stroke-opacity:1"
       id="path126" /><path
       d="m 38.03,20.2 h 1.19 v 0.89425 h -1.19 z"
       style="fill:#eae9e9;fill-opacity:1;fill-rule:nonzero;stroke:none"
       id="path128" /><path
       d="m 38.03,20.2 h 1.19 v 0.89425 h -1.19 z"
       style="fill:none;stroke:#231f20;stroke-width:0.1;stroke-linecap:butt;stroke-linejoin:miter;stroke-miterlimit:10;stroke-dasharray:none;stroke-opacity:1"
       id="path130" /><path
       d="m 64.03,20.2 h 2.48 v 0.1995 h -2.48 z"
       style="fill:#eae9e9;fill-opacity:1;fill-rule:nonzero;stroke:none"
       id="path132" /><path
       d="m 64.03,20.2 h 2.48 v 0.1995 h -2.48 z"
       style="fill:none;stroke:#231f20;stroke-width:0.1;stroke-linecap:butt;stroke-linejoin:miter;stroke-miterlimit:10;stroke-dasharray:none;stroke-opacity:1"
       id="path134" /><path
       d="m 40.61,20.2 h 1.19 v 0.89425 h -1.19 z"
       style="fill:#eae9e9;fill-opacity:1;fill-rule:nonzero;stroke:none"
       id="path136" /><path
       d="m 40.61,20.2 h 1.19 v 0.89425 h -1.19 z"
       style="fill:none;stroke:#231f20;stroke-width:0.1;stroke-linecap:butt;stroke-linejoin:miter;stroke-miterlimit:10;stroke-dasharray:none;stroke-opacity:1"
       id="path138" /><path
       d="m 41.05,22.38 h 1.38 v 0.19845 h -1.38 z"
       style="fill:#eae9e9;fill-opacity:1;fill-rule:nonzero;stroke:none"
       id="path140" /><path
       d="m 41.05,22.38 h 1.38 v 0.19845 h -1.38 z"
       style="fill:none;stroke:#231f20;stroke-width:0.1;stroke-linecap:butt;stroke-linejoin:miter;stroke-miterlimit:10;stroke-dasharray:none;stroke-opacity:1"
       id="path142" /><path
       d="m 39.42,22.38 h 0.89285 v 1.19 H 39.42 Z"
       style="fill:#eae9e9;fill-opacity:1;fill-rule:nonzero;stroke:none"
       id="path144" /><path
       d="m 39.42,22.38 h 0.89285 v 1.19 H 39.42 Z"
       style="fill:none;stroke:#231f20;stroke-width:0.1;stroke-linecap:butt;stroke-linejoin:miter;stroke-miterlimit:10;stroke-dasharray:none;stroke-opacity:1"
       id="path146" /><path
       d="m 41.33,23.47 h 23.18 v 0.1981 H 41.33 Z"
       style="fill:#eae9e9;fill-opacity:1;fill-rule:nonzero;stroke:none"
       id="path148" /><path
       d="m 41.33,23.47 h 23.18 v 0.1981 H 41.33 Z"
       style="fill:none;stroke:#231f20;stroke-width:0.1;stroke-linecap:butt;stroke-linejoin:miter;stroke-miterlimit:10;stroke-dasharray:none;stroke-opacity:1"
       id="path150" /><path
       d="m 34.26,24.96 h 0.8925 v 1.19 H 34.26 Z"
       style="fill:#eae9e9;fill-opacity:1;fill-rule:nonzero;stroke:none"
       id="path152" /><path
       d="m 34.26,24.96 h 0.8925 v 1.19 H 34.26 Z"
       style="fill:none;stroke:#231f20;stroke-width:0.1;stroke-linecap:butt;stroke-linejoin:miter;stroke-miterlimit:10;stroke-dasharray:none;stroke-opacity:1"
       id="path154" /><path
       d="m 12.83,24.04 h 0.1981 v 2.49 H 12.83 Z"
       style="fill:#eae9e9;fill-opacity:1;fill-rule:nonzero;stroke:none"
       id="path156" /><path
       d="m 12.83,24.04 h 0.1981 v 2.49 H 12.83 Z"
       style="fill:none;stroke:#231f20;stroke-width:0.1;stroke-linecap:butt;stroke-linejoin:miter;stroke-miterlimit:10;stroke-dasharray:none;stroke-opacity:1"
       id="path158" /><path
       d="m 11.74,22.68 h 1.69 v 0.1981 h -1.69 z"
       style="fill:#eae9e9;fill-opacity:1;fill-rule:nonzero;stroke:none"
       id="path160" /><path
       d="m 11.74,22.68 h 1.69 v 0.1981 h -1.69 z"
       style="fill:none;stroke:#231f20;stroke-width:0.1;stroke-linecap:butt;stroke-linejoin:miter;stroke-miterlimit:10;stroke-dasharray:none;stroke-opacity:1"
       id="path162" /><path
       d="m 36.84,24.96 h 0.8925 v 1.19 H 36.84 Z"
       style="fill:#eae9e9;fill-opacity:1;fill-rule:nonzero;stroke:none"
       id="path164" /><path
       d="m 36.84,24.96 h 0.8925 v 1.19 H 36.84 Z"
       style="fill:none;stroke:#231f20;stroke-width:0.1;stroke-linecap:butt;stroke-linejoin:miter;stroke-miterlimit:10;stroke-dasharray:none;stroke-opacity:1"
       id="path166" /><path
       d="m 39.42,24.96 h 0.89285 v 1.19 H 39.42 Z"
       style="fill:#eae9e9;fill-opacity:1;fill-rule:nonzero;stroke:none"
       id="path168" /><path
       d="m 39.42,24.96 h 0.89285 v 1.19 H 39.42 Z"
       style="fill:none;stroke:#231f20;stroke-width:0.1;stroke-linecap:butt;stroke-linejoin:miter;stroke-miterlimit:10;stroke-dasharray:none;stroke-opacity:1"
       id="path170" /><path
       d="m 65.22,23.92 h 3.99 v 0.1981 h -3.99 z"
       style="fill:#eae9e9;fill-opacity:1;fill-rule:nonzero;stroke:none"
       id="path172" /><path
       d="m 65.22,23.92 h 3.99 v 0.1981 h -3.99 z"
       style="fill:none;stroke:#231f20;stroke-width:0.1;stroke-linecap:butt;stroke-linejoin:miter;stroke-miterlimit:10;stroke-dasharray:none;stroke-opacity:1"
       id="path174" /><path
       d="m 42,24.96 h 0.89285 v 1.19 H 42 Z"
       style="fill:#eae9e9;fill-opacity:1;fill-rule:nonzero;stroke:none"
       id="path176" /><path
       d="m 42,24.96 h 0.89285 v 1.19 H 42 Z"
       style="fill:none;stroke:#231f20;stroke-width:0.1;stroke-linecap:butt;stroke-linejoin:miter;stroke-miterlimit:10;stroke-dasharray:none;stroke-opacity:1"
       id="path178" /><path
       d="m 43.91,26.05 h 21.51 v 0.1981 H 43.91 Z"
       style="fill:#eae9e9;fill-opacity:1;fill-rule:nonzero;stroke:none"
       id="path180" /><path
       d="m 43.91,26.05 h 21.51 v 0.1981 H 43.91 Z"
       style="fill:none;stroke:#231f20;stroke-width:0.1;stroke-linecap:butt;stroke-linejoin:miter;stroke-miterlimit:10;stroke-dasharray:none;stroke-opacity:1"
       id="path182" /><path
       d="m 35.45,27.94 h 1.19 v 0.89285 h -1.19 z"
       style="fill:#eae9e9;fill-opacity:1;fill-rule:nonzero;stroke:none"
       id="path184" /><path
       d="m 35.45,27.94 h 1.19 v 0.89285 h -1.19 z"
       style="fill:none;stroke:#231f20;stroke-width:0.1;stroke-linecap:butt;stroke-linejoin:miter;stroke-miterlimit:10;stroke-dasharray:none;stroke-opacity:1"
       id="path186" /><path
       d="m 12.55,29.03 h 21.79 v 0.1981 H 12.55 Z"
       style="fill:#eae9e9;fill-opacity:1;fill-rule:nonzero;stroke:none"
       id="path188" /><path
       d="m 12.55,29.03 h 21.79 v 0.1981 H 12.55 Z"
       style="fill:none;stroke:#231f20;stroke-width:0.1;stroke-linecap:butt;stroke-linejoin:miter;stroke-miterlimit:10;stroke-dasharray:none;stroke-opacity:1"
       id="path190" /><path
       d="m 13.28,30.22 h 0.5222 v 0.1981 H 13.28 Z"
       style="fill:#eae9e9;fill-opacity:1;fill-rule:nonzero;stroke:none"
       id="path192" /><path
       d="m 13.28,30.22 h 0.5222 v 0.1981 H 13.28 Z"
       style="fill:none;stroke:#231f20;stroke-width:0.1;stroke-linecap:butt;stroke-linejoin:miter;stroke-miterlimit:10;stroke-dasharray:none;stroke-opacity:1"
       id="path194" /><path
       d="m 15.37,30.22 h 0.5222 v 0.1981 H 15.37 Z"
       style="fill:#eae9e9;fill-opacity:1;fill-rule:nonzero;stroke:none"
       id="path196" /><path
       d="m 15.37,30.22 h 0.5222 v 0.1981 H 15.37 Z"
       style="fill:none;stroke:#231f20;stroke-width:0.1;stroke-linecap:butt;stroke-linejoin:miter;stroke-miterlimit:10;stroke-dasharray:none;stroke-opacity:1"
       id="path198" /><path
       d="m 17.46,30.22 h 0.5208 v 0.1981 H 17.46 Z"
       style="fill:#eae9e9;fill-opacity:1;fill-rule:nonzero;stroke:none"
       id="path200" /><path
       d="m 17.46,30.22 h 0.5208 v 0.1981 H 17.46 Z"
       style="fill:none;stroke:#231f20;stroke-width:0.1;stroke-linecap:butt;stroke-linejoin:miter;stroke-miterlimit:10;stroke-dasharray:none;stroke-opacity:1"
       id="path202" /><path
       d="m 19.55,30.22 h 0.5222 v 0.1981 H 19.55 Z"
       style="fill:#eae9e9;fill-opacity:1;fill-rule:nonzero;stroke:none"
       id="path204" /><path
       d="m 19.55,30.22 h 0.5222 v 0.1981 H 19.55 Z"
       style="fill:none;stroke:#231f20;stroke-width:0.1;stroke-linecap:butt;stroke-linejoin:miter;stroke-miterlimit:10;stroke-dasharray:none;stroke-opacity:1"
       id="path206" /><path
       d="m 21.64,30.22 h 0.5222 v 0.1981 H 21.64 Z"
       style="fill:#eae9e9;fill-opacity:1;fill-rule:nonzero;stroke:none"
       id="path208" /><path
       d="m 21.64,30.22 h 0.5222 v 0.1981 H 21.64 Z"
       style="fill:none;stroke:#231f20;stroke-width:0.1;stroke-linecap:butt;stroke-linejoin:miter;stroke-miterlimit:10;stroke-dasharray:none;stroke-opacity:1"
       id="path210" /><path
       d="m 57.13,30.22 h 0.5222 v 0.1981 H 57.13 Z"
       style="fill:#eae9e9;fill-opacity:1;fill-rule:nonzero;stroke:none"
       id="path212" /><path
       d="m 57.13,30.22 h 0.5222 v 0.1981 H 57.13 Z"
       style="fill:none;stroke:#231f20;stroke-width:0.1;stroke-linecap:butt;stroke-linejoin:miter;stroke-miterlimit:10;stroke-dasharray:none;stroke-opacity:1"
       id="path214" /><path
       d="m 59.22,30.22 h 0.5222 v 0.1981 H 59.22 Z"
       style="fill:#eae9e9;fill-opacity:1;fill-rule:nonzero;stroke:none"
       id="path216" /><path
       d="m 59.22,30.22 h 0.5222 v 0.1981 H 59.22 Z"
       style="fill:none;stroke:#231f20;stroke-width:0.1;stroke-linecap:butt;stroke-linejoin:miter;stroke-miterlimit:10;stroke-dasharray:none;stroke-opacity:1"
       id="path218" /><path
       d="m 61.31,30.22 h 0.5222 v 0.1981 H 61.31 Z"
       style="fill:#eae9e9;fill-opacity:1;fill-rule:nonzero;stroke:none"
       id="path220" /><path
       d="m 61.31,30.22 h 0.5222 v 0.1981 H 61.31 Z"
       style="fill:none;stroke:#231f20;stroke-width:0.1;stroke-linecap:butt;stroke-linejoin:miter;stroke-miterlimit:10;stroke-dasharray:none;stroke-opacity:1"
       id="path222" /><path
       d="m 63.4,30.22 h 0.5222 v 0.1981 H 63.4 Z"
       style="fill:#eae9e9;fill-opacity:1;fill-rule:nonzero;stroke:none"
       id="path224" /><path
       d="m 63.4,30.22 h 0.5222 v 0.1981 H 63.4 Z"
       style="fill:none;stroke:#231f20;stroke-width:0.1;stroke-linecap:butt;stroke-linejoin:miter;stroke-miterlimit:10;stroke-dasharray:none;stroke-opacity:1"
       id="path226" /><path
       d="m 65.49,30.22 h 0.5208 v 0.1981 H 65.49 Z"
       style="fill:#eae9e9;fill-opacity:1;fill-rule:nonzero;stroke:none"
       id="path228" /><path
       d="m 65.49,30.22 h 0.5208 v 0.1981 H 65.49 Z"
       style="fill:none;stroke:#231f20;stroke-width:0.1;stroke-linecap:butt;stroke-linejoin:miter;stroke-miterlimit:10;stroke-dasharray:none;stroke-opacity:1"
       id="path230" /><path
       d="m 23.92,35.68 h 8.76 v 0.1981 h -8.76 z"
       style="fill:#eae9e9;fill-opacity:1;fill-rule:nonzero;stroke:none"
       id="path232" /><path
       d="m 23.92,35.68 h 8.76 v 0.1981 h -8.76 z"
       style="fill:none;stroke:#231f20;stroke-width:0.1;stroke-linecap:butt;stroke-linejoin:miter;stroke-miterlimit:10;stroke-dasharray:none;stroke-opacity:1"
       id="path234" /><path
       d="m 54.6,45.8 h 5.36 v 0.1981 H 54.6 Z"
       style="fill:#eae9e9;fill-opacity:1;fill-rule:nonzero;stroke:none"
       id="path236" /><path
       d="m 54.6,45.8 h 5.36 v 0.1981 H 54.6 Z"
       style="fill:none;stroke:#231f20;stroke-width:0.1;stroke-linecap:butt;stroke-linejoin:miter;stroke-miterlimit:10;stroke-dasharray:none;stroke-opacity:1"
       id="path238" /><path
       d="m 24.76,51.73 h 2.36 v 0.19845 h -2.36 z"
       style="fill:#eae9e9;fill-opacity:1;fill-rule:nonzero;stroke:none"
       id="path240" /><path
       d="m 24.76,51.73 h 2.36 v 0.19845 h -2.36 z"
       style="fill:none;stroke:#231f20;stroke-width:0.1;stroke-linecap:butt;stroke-linejoin:miter;stroke-miterlimit:10;stroke-dasharray:none;stroke-opacity:1"
       id="path242" /><path
       d="m 69.24,52.44 h 2.23 v 0.1981 h -2.23 z"
       style="fill:#eae9e9;fill-opacity:1;fill-rule:nonzero;stroke:none"
       id="path244" /><path
       d="m 69.24,52.44 h 2.23 v 0.1981 h -2.23 z"
       style="fill:none;stroke:#231f20;stroke-width:0.1;stroke-linecap:butt;stroke-linejoin:miter;stroke-miterlimit:10;stroke-dasharray:none;stroke-opacity:1"
       id="path246" /><path
       d="m 39.65,25.24 h 0.721 v 0.721 H 39.65 Z"
       style="fill:#4e67a0;fill-opacity:1;fill-rule:nonzero;stroke:none"
       id="path248" /></g></svg>
